<svg version="1.1" id="Layer_1" xmlns="http://www.w3.org/2000/svg" xmlns:xlink="http://www.w3.org/1999/xlink" x="0px" y="0px"
	 width="100%" viewBox="0 0 199 219" enable-background="new 0 0 199 219" xml:space="preserve">
<path fill="#000000" opacity="1.000000" stroke="none" 
	d="
M114.000000,220.000000 
	C76.000000,220.000000 38.500004,220.000000 1.000005,220.000000 
	C1.000003,147.000000 1.000003,74.000015 1.000002,1.000015 
	C67.333321,1.000010 133.666641,1.000010 199.999969,1.000005 
	C199.999985,73.999985 199.999985,146.999969 200.000000,219.999969 
	C171.500000,220.000000 143.000000,220.000000 114.000000,220.000000 
M68.000000,197.000244 
	C68.000000,197.000244 67.960091,197.046371 68.094437,197.541901 
	C68.390556,197.630005 68.686676,197.718109 69.437683,197.960587 
	C69.437683,197.960587 69.911987,198.036758 70.155502,198.622772 
	C70.758377,198.776154 71.361244,198.929535 72.059227,199.810760 
	C73.692726,200.559021 75.326225,201.307281 77.089783,202.543457 
	C77.380402,202.632706 77.671028,202.721939 78.618790,203.105118 
	C84.323776,207.305664 90.287064,209.825531 97.811493,209.177734 
	C104.586044,208.594482 108.992050,204.476227 114.765907,201.005692 
	C116.184883,200.346802 117.603859,199.687912 119.000061,199.000122 
	C119.000061,199.000122 119.025673,199.026337 119.529732,198.894974 
	C119.712753,198.610382 119.895767,198.325775 120.562332,197.968872 
	C120.562332,197.968872 121.019890,197.796509 121.522980,197.859116 
	C121.700775,197.584717 121.878571,197.310318 122.536743,196.959198 
	C122.536743,196.959198 122.991814,196.787277 123.685654,196.721115 
	C129.127045,193.404114 134.568451,190.087097 140.508987,186.837524 
	C140.683548,186.564346 140.858093,186.291168 141.541611,185.934113 
	C141.704651,185.879486 141.867706,185.824875 142.514114,185.855362 
	C142.839508,185.686050 142.999390,185.417999 143.485657,184.899811 
	C143.666077,184.619858 143.846497,184.339905 144.757202,183.982651 
	C150.184341,180.909851 155.611481,177.837067 161.527420,174.841080 
	C161.843842,174.664444 162.014069,174.395325 162.000168,174.000000 
	C162.000168,174.000000 162.033463,174.037857 162.535156,173.895889 
	C162.714417,173.608612 162.893677,173.321335 163.012268,173.002716 
	C163.012268,173.002716 163.045532,173.062378 163.759903,172.985489 
	C166.524338,171.003922 169.288788,169.022354 172.629257,166.826263 
	C173.348953,165.882065 174.068634,164.937866 174.956696,163.520355 
	C174.983582,163.355057 175.010452,163.189774 175.641113,162.729767 
	C176.110611,161.502304 176.580093,160.274857 177.724213,158.611588 
	C178.077850,151.721558 178.431488,144.831528 178.927658,137.028076 
	C178.880737,130.674728 178.833817,124.321373 178.922531,117.043816 
	C178.878754,110.332367 178.834991,103.620926 178.932541,95.993935 
	C178.216629,87.991989 177.500717,79.990051 176.883072,71.394180 
	C176.572662,70.924492 176.262253,70.454803 175.891159,69.508911 
	C175.891159,69.508911 175.778778,69.042198 175.813568,68.464096 
	C175.221237,68.010002 174.628906,67.555908 174.027069,66.971985 
	C174.027069,66.971985 173.897125,66.979828 173.678421,66.358963 
	C169.641739,61.898685 165.236084,58.009880 158.678192,56.315395 
	C154.117752,53.561295 149.557297,50.807198 145.003189,47.988918 
	C145.003189,47.988918 144.938812,47.992741 144.798508,47.580448 
	C144.623642,47.287819 144.371567,47.185776 143.554489,47.083435 
	C143.383209,47.049545 143.211914,47.015656 142.851120,46.551506 
	C142.657089,46.240105 142.383270,46.133465 141.406906,45.896976 
	C137.941605,43.927616 134.476318,41.958256 130.658493,39.397289 
	C128.111420,38.247669 125.564339,37.098049 122.673775,35.353844 
	C120.374901,33.909252 118.076035,32.464661 115.475334,30.392653 
	C113.660995,29.908350 111.846657,29.424049 110.002983,28.994827 
	C110.002983,28.994827 110.058479,28.966293 109.942696,28.325378 
	C109.297287,27.884619 108.651871,27.443861 108.002098,26.997200 
	C108.002098,26.997200 107.995140,26.994299 107.669945,26.374720 
	C101.663658,22.019531 95.106697,20.634661 88.179596,23.568335 
	C84.006828,25.335533 80.142166,27.830244 76.014442,29.953535 
	C76.014442,29.953535 75.966827,30.076971 75.472473,30.158430 
	C75.294350,30.430853 75.116226,30.703276 74.443016,31.099028 
	C74.281311,31.151714 74.119598,31.204399 73.506531,31.237755 
	C73.215637,31.392477 73.053406,31.633722 72.962387,31.959135 
	C72.962387,31.959135 72.964775,32.016590 72.294800,32.100567 
	C70.864693,33.052967 69.434593,34.005363 67.460686,35.090897 
	C67.283981,35.150932 67.107285,35.210968 66.495544,35.268368 
	C66.223900,35.423378 66.063683,35.655361 65.387787,36.092705 
	C64.587654,36.709496 63.787525,37.326283 62.387863,38.024654 
	C61.914898,38.337513 61.441933,38.650372 60.997185,39.001381 
	C60.997185,39.001381 60.978779,38.958969 60.390484,39.038792 
	C59.939728,39.356480 59.488972,39.674168 58.976620,39.982075 
	C58.976620,39.982075 58.975170,40.044422 58.378265,40.091766 
	C57.916004,40.389610 57.453747,40.687450 56.999695,40.999237 
	C56.999695,40.999237 56.988243,40.989571 56.512932,41.161625 
	C56.326443,41.434235 56.139950,41.706841 55.451115,42.100655 
	C55.291660,42.165806 55.132202,42.230953 54.534676,42.303593 
	C54.260227,42.459789 54.101162,42.694252 54.004429,42.990597 
	C54.004429,42.990597 54.016251,43.044857 53.302765,43.105976 
	C48.516804,46.061752 43.730843,49.017529 38.468880,52.095276 
	C38.468880,52.095276 38.014011,52.281155 37.337299,52.395046 
	C31.890121,55.584370 26.442942,58.773697 20.409969,62.292770 
	C17.942680,66.186050 15.475390,70.079330 12.335900,74.506760 
	C12.305180,81.656921 12.274459,88.807083 12.104524,96.896141 
	C12.139899,103.899559 12.175275,110.902977 12.076832,118.846504 
	C12.112939,125.210838 12.149045,131.575180 12.037179,138.873718 
	C12.037843,143.353622 11.819874,147.848343 12.121997,152.307816 
	C12.300364,154.940582 13.302217,157.517563 14.001727,160.835983 
	C15.317747,162.897797 16.633766,164.959610 18.214228,167.628052 
	C19.463419,168.437622 20.712610,169.247192 22.108250,170.546539 
	C22.392757,170.716644 22.677267,170.886749 23.000341,171.002930 
	C23.000341,171.002930 22.948679,171.044128 23.093449,171.527145 
	C23.384068,171.614243 23.674686,171.701340 24.616385,172.080887 
	C27.413765,173.654602 30.211147,175.228317 33.452072,176.964600 
	C33.452072,176.964600 33.918507,177.039627 34.179329,177.627060 
	C35.105480,178.109009 36.031631,178.590958 37.263000,179.703888 
	C40.168388,181.146179 43.073772,182.588486 46.295593,184.646683 
	C49.199066,186.339493 52.102539,188.032318 55.488075,189.910141 
	C55.657215,189.942001 55.826359,189.973862 56.128510,190.485031 
	C56.128510,190.485031 56.493069,190.823730 56.493069,190.823730 
	C56.493069,190.823730 56.984127,190.743042 57.477997,190.926926 
	C57.651516,190.954300 57.825031,190.981674 58.286007,191.636581 
	C60.510143,192.774887 62.734280,193.913193 65.000092,195.000610 
	C65.000092,195.000610 64.946556,195.038040 65.090065,195.534912 
	C65.387573,195.618668 65.685081,195.702438 66.454338,195.936676 
	C66.454338,195.936676 66.940826,196.029007 67.091698,196.527252 
	C67.380394,196.699112 67.669090,196.870956 68.000000,197.000244 
z"/>
<path fill="#BA69E1" opacity="1.000000" stroke="none" 
	d="
M66.940826,196.029007 
	C66.940826,196.029007 66.454338,195.936676 66.068634,195.706512 
	C65.468277,195.278519 65.222816,195.132416 64.946556,195.038040 
	C64.946556,195.038040 65.000092,195.000610 64.880280,194.696533 
	C62.506489,193.264664 60.252518,192.136856 57.998550,191.009048 
	C57.825031,190.981674 57.651516,190.954300 57.092430,190.678955 
	C56.502060,190.235184 56.264938,190.093414 55.995499,190.005707 
	C55.826359,189.973862 55.657215,189.942001 55.310089,189.458221 
	C57.404869,188.573822 59.666523,187.881332 61.953583,187.783676 
	C64.139572,187.690323 66.404999,188.643417 68.541534,188.378571 
	C72.732071,187.859039 76.857300,186.812729 81.005104,185.991821 
	C81.000656,185.999237 81.015091,185.988922 81.068695,186.321899 
	C83.165115,192.257278 85.655296,188.229950 88.391388,187.007706 
	C89.513741,187.101471 90.261383,187.162720 91.283890,187.439209 
	C97.373535,187.440384 103.188324,187.226318 109.352928,186.861115 
	C111.467888,186.474121 113.233032,186.238266 115.291443,186.231613 
	C117.625458,186.976761 119.642418,187.640350 121.712555,187.973831 
	C124.763573,188.465332 127.228432,188.917038 124.217682,192.700317 
	C123.395470,193.733505 123.378387,195.407410 122.991814,196.787277 
	C122.991814,196.787277 122.536743,196.959198 122.101868,197.091721 
	C121.421005,197.380737 121.205299,197.571487 121.019890,197.796509 
	C121.019890,197.796509 120.562332,197.968872 120.113800,198.133118 
	C119.404915,198.498993 119.191711,198.741974 119.025673,199.026337 
	C119.025673,199.026337 119.000061,199.000122 118.610977,199.003235 
	C117.153625,199.005295 116.085373,199.004257 114.739014,198.763794 
	C112.468605,198.154953 110.477287,197.476608 108.483810,197.470230 
	C100.344513,197.444153 91.930458,198.905975 84.167503,197.246826 
	C79.500374,196.249329 75.964401,195.618713 71.645882,198.003250 
	C70.836761,198.014877 70.374374,198.025818 69.911987,198.036758 
	C69.911987,198.036758 69.437683,197.960587 69.063026,197.726776 
	C68.477875,197.291473 68.235115,197.142609 67.960091,197.046371 
	C67.960091,197.046371 68.000000,197.000244 67.847496,196.817078 
	C67.487358,196.377716 67.235970,196.176086 66.940826,196.029007 
M114.187874,189.666412 
	C114.014694,189.808334 113.841515,189.950256 113.668335,190.092178 
	C113.753624,190.185150 113.838921,190.278137 113.924210,190.371124 
	C114.078682,190.208420 114.233162,190.045715 114.187874,189.666412 
z"/>
<path fill="#154DB0" opacity="1.000000" stroke="none" 
	d="
M54.972740,42.296104 
	C55.132202,42.230953 55.291660,42.165806 55.903961,41.907825 
	C56.611401,41.511589 56.821880,41.269779 56.988243,40.989571 
	C56.988243,40.989571 56.999695,40.999237 57.274590,40.947189 
	C58.024712,40.611568 58.499939,40.327991 58.975166,40.044418 
	C58.975170,40.044422 58.976620,39.982075 59.285484,39.935242 
	C60.055828,39.578594 60.517303,39.268784 60.978779,38.958969 
	C60.978779,38.958969 60.997185,39.001381 61.271179,38.936668 
	C62.025917,38.562332 62.506657,38.252705 62.987396,37.943077 
	C63.787525,37.326283 64.587654,36.709496 65.873840,35.941639 
	C66.579903,35.650082 66.770126,35.476894 66.930588,35.271004 
	C67.107285,35.210968 67.283981,35.150932 68.003876,35.154415 
	C69.690025,35.138393 70.832993,35.058853 72.158569,35.246346 
	C76.277496,37.319077 80.166260,35.732903 84.068153,35.683800 
	C92.084038,35.582916 100.102539,38.000889 108.163857,38.340618 
	C113.072670,38.547489 118.063347,36.811642 123.017258,35.948433 
	C125.564339,37.098049 128.111420,38.247669 130.967590,40.014687 
	C130.924652,41.696064 130.768463,43.552200 130.188812,43.695511 
	C126.413826,44.628830 122.559372,45.274330 118.705994,45.845963 
	C115.821648,46.273846 112.899933,46.449806 109.758942,46.768326 
	C109.205551,46.652401 109.024361,46.405903 108.843674,45.716545 
	C99.697029,42.627991 90.664284,43.538979 81.634193,45.245964 
	C81.387398,45.292618 81.215889,45.737587 81.006279,46.000687 
	C81.003288,46.004562 80.993958,46.006847 80.560013,46.000717 
	C74.085396,46.328369 68.044731,46.662144 61.981632,46.647694 
	C61.607777,43.675358 60.480389,42.775978 57.989101,44.344299 
	C56.256310,45.435135 54.268044,46.736271 54.016251,43.044857 
	C54.016251,43.044857 54.004429,42.990597 54.200909,42.904423 
	C54.616085,42.673862 54.807869,42.499813 54.972740,42.296104 
z"/>
<path fill="#0C4CB0" opacity="1.000000" stroke="none" 
	d="
M122.845520,35.651138 
	C118.063347,36.811642 113.072670,38.547489 108.163857,38.340618 
	C100.102539,38.000889 92.084038,35.582916 84.068153,35.683800 
	C80.166260,35.732903 76.277496,37.319077 72.296616,34.962791 
	C72.489624,33.613663 72.727196,32.815128 72.964775,32.016590 
	C72.964775,32.016590 72.962387,31.959135 73.167702,31.872513 
	C73.597473,31.642250 73.792427,31.465982 73.957893,31.257086 
	C74.119598,31.204399 74.281311,31.151714 74.887810,30.918606 
	C75.582253,30.554462 75.793663,30.334059 75.966827,30.076971 
	C75.966827,30.076971 76.014442,29.953535 76.485214,29.976723 
	C81.813995,29.121967 86.650230,28.059750 91.543640,27.481138 
	C92.966003,27.312954 94.917755,28.149014 95.989586,29.184399 
	C98.520668,31.629444 100.477516,31.621317 103.025742,29.169565 
	C104.248199,27.993391 106.312241,27.691914 107.995140,26.994301 
	C107.995140,26.994299 108.002098,26.997200 108.090637,27.294823 
	C108.805603,28.050394 109.432037,28.508345 110.058479,28.966293 
	C110.058479,28.966293 110.002983,28.994827 110.142342,29.305035 
	C112.113518,30.083515 113.945343,30.551792 115.777161,31.020069 
	C118.076035,32.464661 120.374901,33.909252 122.845520,35.651138 
z"/>
<path fill="#C26CE0" opacity="1.000000" stroke="none" 
	d="
M71.992615,198.002563 
	C75.964401,195.618713 79.500374,196.249329 84.167503,197.246826 
	C91.930458,198.905975 100.344513,197.444153 108.483810,197.470230 
	C110.477287,197.476608 112.468605,198.154953 114.613083,199.025116 
	C114.527290,200.053604 114.289322,200.581375 114.051346,201.109131 
	C108.992050,204.476227 104.586044,208.594482 97.811493,209.177734 
	C90.287064,209.825531 84.323776,207.305664 78.143936,202.805771 
	C77.459625,202.313675 77.223167,202.163391 76.959717,202.055557 
	C75.326225,201.307281 73.692726,200.559021 72.024597,199.176926 
	C71.990845,198.362915 71.991730,198.182739 71.992615,198.002563 
z"/>
<path fill="#A467D6" opacity="1.000000" stroke="none" 
	d="
M161.038620,174.764282 
	C155.611481,177.837067 150.184341,180.909851 144.358734,183.695618 
	C143.619949,182.902435 143.360214,182.043320 142.926926,181.944397 
	C138.281204,180.883743 133.608063,179.943176 129.074738,178.646118 
	C134.108536,175.200104 139.010010,172.077667 144.186996,168.826874 
	C145.306793,168.138519 146.151077,167.578491 147.192383,167.321457 
	C149.695358,170.792847 152.683243,170.026245 155.815170,169.260605 
	C158.500366,168.604202 161.278625,168.328384 164.769745,167.761887 
	C163.928162,170.349045 163.486832,171.705704 163.045532,173.062378 
	C163.045532,173.062378 163.012268,173.002716 162.839249,173.152771 
	C162.410172,173.508987 162.199249,173.753998 162.033463,174.037857 
	C162.033463,174.037857 162.000168,174.000000 161.832535,174.109253 
	C161.427353,174.367386 161.218597,174.549316 161.038620,174.764282 
z"/>
<path fill="#3852B8" opacity="1.000000" stroke="none" 
	d="
M176.784821,71.988106 
	C177.500717,79.990051 178.216629,87.991989 178.662231,96.155777 
	C177.925079,93.546074 177.458252,90.774521 176.994736,87.549591 
	C176.997971,85.935646 177.011124,84.774895 176.995468,83.614532 
	C176.926056,78.468597 175.641632,77.327606 170.441193,77.489586 
	C167.113007,77.593262 163.778961,77.509026 159.551987,77.509026 
	C159.259827,78.330757 158.614685,80.145248 157.654419,81.825745 
	C155.203476,78.435211 153.067627,75.178658 150.815918,71.753647 
	C150.524353,71.373100 150.318268,71.196510 150.024445,71.058960 
	C149.967117,71.062523 149.957062,70.948090 149.860992,70.779037 
	C149.614441,70.395905 149.436325,70.208000 149.153214,69.791031 
	C149.039856,69.361664 149.003906,69.187531 148.836731,68.825661 
	C148.508194,68.401131 148.277313,68.203529 147.989014,68.041214 
	C147.965118,68.037323 147.960114,67.988625 148.024231,67.695618 
	C148.470978,66.902603 148.970169,65.917160 149.218491,65.976776 
	C152.094910,66.667229 154.906631,67.636902 157.792603,68.273911 
	C159.368271,68.621704 161.056595,68.585144 162.686859,68.525009 
	C164.409134,68.461464 166.128174,68.201668 167.838821,67.958611 
	C169.863739,67.670883 171.878159,67.309364 173.897125,66.979828 
	C173.897125,66.979828 174.027069,66.971985 174.005539,67.349297 
	C173.371674,70.163155 174.142181,71.690842 176.784821,71.988106 
z"/>
<path fill="#2E50B4" opacity="1.000000" stroke="none" 
	d="
M173.787781,66.669395 
	C171.878159,67.309364 169.863739,67.670883 167.838821,67.958611 
	C166.128174,68.201668 164.409134,68.461464 162.686859,68.525009 
	C161.056595,68.585144 159.368271,68.621704 157.792603,68.273911 
	C154.906631,67.636902 152.094910,66.667229 149.218491,65.976776 
	C148.970169,65.917160 148.470978,66.902603 147.730774,67.571877 
	C146.233215,66.470375 145.093216,65.199600 143.831299,63.755959 
	C143.525208,63.365601 143.309784,63.185486 142.816071,62.935005 
	C142.367737,62.537323 142.166443,62.247387 141.977188,61.578506 
	C142.990356,59.138008 143.991470,57.076450 145.247864,55.013557 
	C145.673279,55.011059 145.843445,55.009892 146.274170,55.229797 
	C150.161896,60.573132 154.677185,58.055832 159.033752,56.903912 
	C165.236084,58.009880 169.641739,61.898685 173.787781,66.669395 
z"/>
<path fill="#9563D6" opacity="1.000000" stroke="none" 
	d="
M17.949785,167.021423 
	C16.633766,164.959610 15.317747,162.897797 14.007833,160.193420 
	C14.008989,157.700470 14.004038,155.850082 14.302385,153.874207 
	C18.010420,153.748718 21.415155,153.748718 24.819891,153.748718 
	C24.898737,153.319290 24.977583,152.889877 25.056429,152.460449 
	C26.030005,153.489929 27.003580,154.519409 27.805365,155.367233 
	C30.095325,154.485474 32.054752,153.730988 34.009079,152.986206 
	C34.003979,152.995911 34.024204,152.987946 34.036316,153.324646 
	C34.706139,154.433121 35.363842,155.204895 36.010773,155.988342 
	C36.000000,156.000000 36.021793,155.977051 36.146873,156.174286 
	C36.465900,156.620132 36.699181,156.823669 36.996361,156.981415 
	C37.020931,156.980698 37.010471,157.028732 37.025055,157.360458 
	C37.690388,158.452225 38.341137,159.212265 39.010815,159.972305 
	C39.029739,159.972305 39.030552,160.010147 39.155991,160.200775 
	C39.477051,160.630280 39.711815,160.820938 40.012299,160.962280 
	C40.038872,160.961151 40.036869,161.014313 40.160713,161.203156 
	C40.478027,161.628555 40.710541,161.816910 41.013203,161.956360 
	C41.044300,161.955658 41.043106,162.017868 41.167343,162.205658 
	C41.486023,162.628281 41.719261,162.814484 42.020130,162.951508 
	C42.048958,162.950943 42.047867,163.008591 42.171219,163.199905 
	C42.487736,163.631165 42.720142,163.823776 43.231331,164.058914 
	C43.654510,164.426834 43.838150,164.704880 44.012775,165.234528 
	C44.000961,165.653915 43.998154,165.821732 43.770504,166.181030 
	C43.143631,166.652832 42.484688,167.253403 42.376907,167.166931 
	C39.151375,164.579361 35.149925,165.129929 31.571697,164.168991 
	C26.089266,162.696671 21.906078,163.211105 17.949785,167.021423 
z"/>
<path fill="#3552B5" opacity="1.000000" stroke="none" 
	d="
M13.008101,73.972610 
	C15.475390,70.079330 17.942680,66.186050 20.919106,62.385719 
	C22.622286,65.340401 24.479052,64.280647 26.736410,63.838535 
	C29.558035,63.285912 34.425877,62.717396 35.179390,64.021950 
	C37.481354,68.007355 40.325420,67.480324 43.555885,67.275681 
	C39.997677,71.417885 36.518345,75.244820 33.170586,78.800980 
	C34.283810,74.723587 31.396786,71.594948 26.904198,72.207512 
	C22.557320,72.800224 18.301107,74.057877 13.813938,74.873138 
	C13.379914,74.503883 13.175012,74.253807 13.008101,73.972610 
z"/>
<path fill="#9A65D6" opacity="1.000000" stroke="none" 
	d="
M163.402710,173.023926 
	C163.486832,171.705704 163.928162,170.349045 164.769745,167.761887 
	C161.278625,168.328384 158.500366,168.604202 155.815170,169.260605 
	C152.683243,170.026245 149.695358,170.792847 147.469147,167.126999 
	C148.025238,165.422073 148.501617,164.214600 149.049072,162.759644 
	C149.402237,162.334946 149.684311,162.157715 150.313873,161.911621 
	C153.546753,160.885086 154.877228,156.793610 159.270218,158.484451 
	C162.299469,159.650375 165.980286,159.459213 169.346039,159.315491 
	C172.380585,159.185928 174.667679,159.419815 175.037308,163.024490 
	C175.010452,163.189774 174.983582,163.355057 174.534119,163.794373 
	C173.425430,165.059189 172.739334,166.050003 172.053238,167.040802 
	C169.288788,169.022354 166.524338,171.003922 163.402710,173.023926 
z"/>
<path fill="#B169DC" opacity="1.000000" stroke="none" 
	d="
M128.942429,178.969696 
	C133.608063,179.943176 138.281204,180.883743 142.926926,181.944397 
	C143.360214,182.043320 143.619949,182.902435 143.993591,183.734253 
	C143.846497,184.339905 143.666077,184.619858 143.055206,185.059021 
	C142.392792,185.365677 142.194778,185.549683 142.030746,185.770279 
	C141.867706,185.824875 141.704651,185.879486 141.093384,186.066956 
	C140.401459,186.354324 140.189682,186.544418 140.009842,186.770096 
	C134.568451,190.087097 129.127045,193.404114 123.338730,196.754196 
	C123.378387,195.407410 123.395470,193.733505 124.217682,192.700317 
	C127.228432,188.917038 124.763573,188.465332 121.712555,187.973831 
	C119.642418,187.640350 117.625458,186.976761 115.405823,186.004517 
	C115.476189,185.105408 115.725449,184.662613 116.215042,184.135666 
	C116.622757,184.023209 116.790146,183.994919 117.232346,183.941833 
	C117.998024,183.683746 118.488884,183.450455 119.215164,183.128326 
	C119.616020,183.011734 119.781456,182.983963 120.140305,182.872314 
	C120.577789,182.642303 120.788773,182.458237 121.213593,182.152313 
	C121.631592,182.037476 121.802689,182.006607 122.164940,181.889603 
	C122.597443,181.656128 122.807335,181.472778 123.231621,181.173279 
	C123.645615,181.055099 123.813766,181.017075 124.170540,180.891785 
	C124.597679,180.656952 124.802498,180.472046 125.263565,180.151581 
	C125.752220,180.006805 125.950920,179.960236 126.300568,179.857880 
	C126.643677,179.689865 126.787163,179.533051 127.211594,179.209534 
	C128.008270,179.048187 128.475357,179.008942 128.942429,178.969696 
z"/>
<path fill="#2B51B2" opacity="1.000000" stroke="none" 
	d="
M43.634762,66.960426 
	C40.325420,67.480324 37.481354,68.007355 35.179390,64.021950 
	C34.425877,62.717396 29.558035,63.285912 26.736410,63.838535 
	C24.479052,64.280647 22.622286,65.340401 21.212002,62.220848 
	C26.442942,58.773697 31.890121,55.584370 37.616432,52.606956 
	C38.396637,57.092598 41.958477,59.290886 46.334820,57.841206 
	C48.547737,57.108170 50.707607,55.664188 51.866768,59.284462 
	C49.017384,62.043507 46.326073,64.501968 43.634762,66.960426 
z"/>
<path fill="#9D66D4" opacity="1.000000" stroke="none" 
	d="
M18.082005,167.324738 
	C21.906078,163.211105 26.089266,162.696671 31.571697,164.168991 
	C35.149925,165.129929 39.151375,164.579361 42.376907,167.166931 
	C42.484688,167.253403 43.143631,166.652832 43.970398,166.185257 
	C44.395138,165.998001 44.794582,165.998032 44.960831,166.306900 
	C48.082890,169.070374 51.038708,171.524963 53.604622,173.982147 
	C45.783428,170.343887 37.912361,170.271713 30.373787,170.994919 
	C31.238068,172.899826 32.123302,174.850922 33.008530,176.802032 
	C30.211147,175.228317 27.413765,173.654602 24.141243,171.784760 
	C23.451532,171.300797 23.212391,171.152634 22.948679,171.044128 
	C22.948679,171.044128 23.000341,171.002930 22.843933,170.834961 
	C22.481291,170.421158 22.239384,170.217743 21.961803,170.056763 
	C20.712610,169.247192 19.463419,168.437622 18.082005,167.324738 
z"/>
<path fill="#1D4EB0" opacity="1.000000" stroke="none" 
	d="
M146.013611,55.008728 
	C145.843445,55.009892 145.673279,55.011059 144.917389,54.901405 
	C140.984802,50.664280 136.673401,50.336109 131.891541,51.496078 
	C130.316498,51.878151 128.641647,51.848774 127.002045,52.009113 
	C126.991653,52.010696 126.986984,51.990173 126.785522,51.794289 
	C126.066551,51.395367 125.549049,51.192333 124.649826,50.945671 
	C119.510368,49.514008 114.752609,48.125969 109.994858,46.737938 
	C112.899933,46.449806 115.821648,46.273846 118.705994,45.845963 
	C122.559372,45.274330 126.413826,44.628830 130.188812,43.695511 
	C130.768463,43.552200 130.924652,41.696064 131.143845,40.310493 
	C134.476318,41.958256 137.941605,43.927616 141.867767,46.214035 
	C142.543488,46.716831 142.780823,46.867058 143.040619,46.981766 
	C143.211914,47.015656 143.383209,47.049545 143.931671,47.318394 
	C144.498672,47.728722 144.708664,47.875187 144.938812,47.992741 
	C144.938812,47.992741 145.003189,47.988918 145.030731,48.363182 
	C144.898941,50.900654 150.340210,52.210686 146.013611,55.008728 
z"/>
<path fill="#AD69D8" opacity="1.000000" stroke="none" 
	d="
M81.009552,185.984421 
	C76.857300,186.812729 72.732071,187.859039 68.541534,188.378571 
	C66.404999,188.643417 64.139572,187.690323 61.953583,187.783676 
	C59.666523,187.881332 57.404869,188.573822 55.069061,189.365723 
	C52.102539,188.032318 49.199066,186.339493 46.074875,184.020630 
	C45.169876,182.190811 44.485596,180.987061 43.801319,179.783310 
	C46.489521,180.094269 48.648476,182.424194 50.484997,182.192993 
	C56.402023,181.448059 49.309265,178.447006 51.090908,176.606216 
	C52.401588,176.738098 53.701176,176.868866 55.332481,177.002762 
	C56.106194,177.017044 56.548191,177.028183 57.013054,177.396362 
	C57.651020,179.703064 57.423222,182.694077 61.281967,180.853882 
	C62.297874,180.492218 63.042946,180.247711 63.984550,180.322754 
	C69.790581,182.423004 75.400063,184.203705 81.009552,185.984421 
z"/>
<path fill="#A667D8" opacity="1.000000" stroke="none" 
	d="
M55.000763,176.999619 
	C53.701176,176.868866 52.401588,176.738098 51.090908,176.606216 
	C49.309265,178.447006 56.402023,181.448059 50.484997,182.192993 
	C48.648476,182.424194 46.489521,180.094269 43.801319,179.783310 
	C44.485596,180.987061 45.169876,182.190811 45.916656,183.712677 
	C43.073772,182.588486 40.168388,181.146179 37.012543,179.066101 
	C35.814224,177.965439 34.866364,177.502533 33.918507,177.039627 
	C33.918507,177.039627 33.452072,176.964600 33.230301,176.883301 
	C32.123302,174.850922 31.238068,172.899826 30.373787,170.994919 
	C37.912361,170.271713 45.783428,170.343887 53.614697,173.987366 
	C54.014671,173.990005 54.023838,174.007339 54.159462,174.199646 
	C54.502647,174.633102 54.747662,174.826889 55.015114,174.986664 
	C55.000099,175.000000 55.025654,174.969284 55.016022,175.307495 
	C55.004517,176.097000 55.002640,176.548309 55.000763,176.999619 
z"/>
<path fill="#4655B7" opacity="1.000000" stroke="none" 
	d="
M12.672001,74.239685 
	C13.175012,74.253807 13.379914,74.503883 13.819488,75.230988 
	C13.476686,77.998840 17.803726,79.800621 14.634235,82.307770 
	C15.736087,82.957924 16.907505,84.256523 17.927860,84.147064 
	C22.582336,83.647720 27.194384,82.752892 31.880615,82.378723 
	C29.970055,87.841888 28.000557,92.926544 25.850445,97.729019 
	C25.451777,94.143494 27.643585,89.958939 21.789021,88.967285 
	C15.295531,87.867416 14.239403,88.506371 12.838398,95.964897 
	C12.640145,95.966866 12.243738,95.957245 12.243738,95.957245 
	C12.274459,88.807083 12.305180,81.656921 12.672001,74.239685 
z"/>
<path fill="#234FB4" opacity="1.000000" stroke="none" 
	d="
M52.024837,58.983883 
	C50.707607,55.664188 48.547737,57.108170 46.334820,57.841206 
	C41.958477,59.290886 38.396637,57.092598 37.954788,52.550011 
	C38.014011,52.281155 38.468880,52.095276 39.047318,52.025162 
	C45.715103,50.481453 51.026119,45.406422 58.050205,48.268986 
	C58.411507,49.032734 58.714016,49.513371 59.153412,50.303070 
	C59.516247,51.703068 59.742195,52.794003 59.970108,53.935440 
	C59.972073,53.985943 59.871029,53.988594 59.714680,54.079208 
	C59.359711,54.311024 59.189400,54.480656 58.784954,54.772549 
	C58.343212,54.915108 58.163906,54.963825 57.795906,55.150787 
	C57.370300,55.497681 57.178276,55.741665 57.017220,56.013378 
	C57.003300,56.005779 57.021889,56.032452 56.835922,56.134365 
	C56.415058,56.397541 56.206810,56.587959 55.770325,56.875214 
	C55.341709,56.969902 55.167980,56.996902 54.809837,57.133797 
	C54.391808,57.413792 54.196518,57.620167 54.029728,57.940514 
	C54.019897,58.018215 53.863739,58.030483 53.710911,58.116524 
	C53.364716,58.339390 53.200138,58.504864 52.811146,58.794563 
	C52.380241,58.921398 52.202538,58.952641 52.024837,58.983883 
z"/>
<path fill="#9163D1" opacity="1.000000" stroke="none" 
	d="
M175.339203,162.877136 
	C174.667679,159.419815 172.380585,159.185928 169.346039,159.315491 
	C165.980286,159.459213 162.299469,159.650375 159.270218,158.484451 
	C154.877228,156.793610 153.546753,160.885086 150.357315,161.559158 
	C152.696320,157.499847 155.339386,153.724152 158.240540,150.207230 
	C164.240463,154.388931 170.768967,152.578629 176.991302,153.435486 
	C177.011078,155.594177 177.030334,157.320786 177.049591,159.047394 
	C176.580093,160.274857 176.110611,161.502304 175.339203,162.877136 
z"/>
<path fill="#4F55BF" opacity="1.000000" stroke="none" 
	d="
M176.991409,88.002975 
	C177.458252,90.774521 177.925079,93.546074 178.591568,96.613548 
	C178.834991,103.620926 178.878754,110.332367 178.560059,117.513657 
	C177.804535,117.982979 177.411484,117.982468 177.017609,117.529892 
	C177.011185,114.050758 177.005600,111.023705 177.001099,107.539276 
	C177.002182,103.617157 177.002182,100.152420 177.002182,97.949554 
	C172.011566,97.142715 168.478134,96.571457 164.808777,95.694817 
	C164.123688,93.929710 163.574524,92.469994 163.302826,90.840149 
	C168.050659,89.780998 172.521042,88.891991 176.991409,88.002975 
z"/>
<path fill="#0B4AA4" opacity="1.000000" stroke="none" 
	d="
M107.832542,26.684509 
	C106.312241,27.691914 104.248199,27.993391 103.025742,29.169565 
	C100.477516,31.621317 98.520668,31.629444 95.989586,29.184399 
	C94.917755,28.149014 92.966003,27.312954 91.543640,27.481138 
	C86.650230,28.059750 81.813995,29.121967 76.547516,29.998974 
	C80.142166,27.830244 84.006828,25.335533 88.179596,23.568335 
	C95.106697,20.634661 101.663658,22.019531 107.832542,26.684509 
z"/>
<path fill="#7F61C8" opacity="1.000000" stroke="none" 
	d="
M13.999086,153.999695 
	C14.004038,155.850082 14.008989,157.700470 13.973840,159.835236 
	C13.302217,157.517563 12.300364,154.940582 12.121997,152.307816 
	C11.819874,147.848343 12.037843,143.353622 12.277850,138.264297 
	C12.725628,137.444962 12.904539,137.213287 13.506947,136.972015 
	C17.638348,136.328934 21.318056,135.673676 25.292412,135.015869 
	C25.979689,135.002090 26.372314,134.990860 26.859686,135.355743 
	C28.895111,140.490814 30.835793,145.249817 32.432236,149.973648 
	C31.059580,148.957718 29.820457,148.119919 29.040613,146.970520 
	C26.234102,142.833984 20.321232,140.643356 15.942868,143.378738 
	C12.167156,145.737610 12.375319,150.023026 13.999086,153.999695 
z"/>
<path fill="#665DC1" opacity="1.000000" stroke="none" 
	d="
M13.055254,136.959839 
	C12.904539,137.213287 12.725628,137.444962 12.351837,137.797195 
	C12.149045,131.575180 12.112939,125.210838 12.327991,118.040207 
	C12.732457,115.450287 12.393299,113.407043 13.162454,111.948105 
	C14.146545,110.081451 15.824177,107.654190 17.560919,107.318047 
	C20.490248,106.751083 22.930353,108.486763 22.961176,112.086571 
	C22.977997,114.050995 22.962196,116.015701 22.577497,117.991882 
	C19.660719,118.230576 17.127554,118.457672 14.370474,118.704849 
	C13.921332,121.278481 13.505632,123.660484 13.077471,126.497414 
	C13.061757,130.288162 13.058505,133.624008 13.055254,136.959839 
z"/>
<path fill="#5A59BA" opacity="1.000000" stroke="none" 
	d="
M22.961109,117.980286 
	C22.962196,116.015701 22.977997,114.050995 22.961176,112.086571 
	C22.930353,108.486763 20.490248,106.751083 17.560919,107.318047 
	C15.824177,107.654190 14.146545,110.081451 13.162454,111.948105 
	C12.393299,113.407043 12.732457,115.450287 12.394900,117.570145 
	C12.175275,110.902977 12.139899,103.899559 12.174131,96.426697 
	C12.243738,95.957245 12.640145,95.966866 13.043411,96.277138 
	C15.178448,101.924675 20.822695,103.024841 25.876614,99.418922 
	C25.198946,105.892754 24.467833,111.947472 23.542585,118.004890 
	C23.348452,118.007599 22.961107,117.980286 22.961109,117.980286 
z"/>
<path fill="#7F61C8" opacity="1.000000" stroke="none" 
	d="
M177.386902,158.829498 
	C177.030334,157.320786 177.011078,155.594177 176.999191,153.053482 
	C177.108170,151.080200 177.292404,149.921371 177.297592,148.761749 
	C177.325378,142.544708 176.118500,141.634750 169.847961,142.762909 
	C166.911850,143.291168 163.931519,143.573624 160.990143,143.594467 
	C161.664322,141.469666 162.319580,139.717896 163.297897,138.113144 
	C168.088486,138.158463 172.556000,138.056763 177.317200,137.959717 
	C178.002304,137.956757 178.393707,137.949127 178.785126,137.941498 
	C178.431488,144.831528 178.077850,151.721558 177.386902,158.829498 
z"/>
<path fill="#254FAE" opacity="1.000000" stroke="none" 
	d="
M146.274170,55.229797 
	C150.340210,52.210686 144.898941,50.900654 145.027557,48.395271 
	C149.557297,50.807198 154.117752,53.561295 158.855972,56.609653 
	C154.677185,58.055832 150.161896,60.573132 146.274170,55.229797 
z"/>
<path fill="#1F4EAA" opacity="1.000000" stroke="none" 
	d="
M57.991413,47.985874 
	C51.026119,45.406422 45.715103,50.481453 39.285316,51.964172 
	C43.730843,49.017529 48.516804,46.061752 53.659508,43.075417 
	C54.268044,46.736271 56.256310,45.435135 57.989101,44.344299 
	C60.480389,42.775978 61.607777,43.675358 61.979454,46.649853 
	C61.999710,47.000237 61.995281,47.004066 61.639248,47.005295 
	C60.185947,47.332973 59.088680,47.659424 57.991413,47.985874 
z"/>
<path fill="#6459C3" opacity="1.000000" stroke="none" 
	d="
M178.856384,137.484787 
	C178.393707,137.949127 178.002304,137.956757 177.313843,137.514832 
	C177.008224,134.378693 176.999680,131.692093 176.994537,128.546967 
	C176.993942,124.729843 176.989960,121.371239 176.993637,118.005600 
	C177.001312,117.998566 177.018433,117.981956 177.018433,117.981956 
	C177.411484,117.982468 177.804535,117.982979 178.492249,117.975761 
	C178.833817,124.321373 178.880737,130.674728 178.856384,137.484787 
z"/>
<path fill="#0B4AA4" opacity="1.000000" stroke="none" 
	d="
M72.629791,32.058578 
	C72.727196,32.815128 72.489624,33.613663 72.113998,34.695755 
	C70.832993,35.058853 69.690025,35.138393 68.275772,35.087849 
	C69.434593,34.005363 70.864693,33.052967 72.629791,32.058578 
z"/>
<path fill="#AD69D8" opacity="1.000000" stroke="none" 
	d="
M58.142277,191.322815 
	C60.252518,192.136856 62.506489,193.264664 64.859436,194.721985 
	C62.734280,193.913193 60.510143,192.774887 58.142277,191.322815 
z"/>
<path fill="#2E50B4" opacity="1.000000" stroke="none" 
	d="
M176.833954,71.691147 
	C174.142181,71.690842 173.371674,70.163155 174.010284,67.414215 
	C174.628906,67.555908 175.221237,68.010002 175.734055,68.874512 
	C175.607895,69.572441 175.706985,69.805840 175.951843,69.985123 
	C176.262253,70.454803 176.572662,70.924492 176.833954,71.691147 
z"/>
<path fill="#0B4AA4" opacity="1.000000" stroke="none" 
	d="
M115.626251,30.706360 
	C113.945343,30.551792 112.113518,30.083515 110.157013,29.277493 
	C111.846657,29.424049 113.660995,29.908350 115.626251,30.706360 
z"/>
<path fill="#B169DC" opacity="1.000000" stroke="none" 
	d="
M114.408630,201.057404 
	C114.289322,200.581375 114.527290,200.053604 114.891190,199.264526 
	C116.085373,199.004257 117.153625,199.005295 118.622360,199.017670 
	C117.603859,199.687912 116.184883,200.346802 114.408630,201.057404 
z"/>
<path fill="#9163D1" opacity="1.000000" stroke="none" 
	d="
M172.341248,166.933533 
	C172.739334,166.050003 173.425430,165.059189 174.449936,164.031036 
	C174.068634,164.937866 173.348953,165.882065 172.341248,166.933533 
z"/>
<path fill="#9D66D4" opacity="1.000000" stroke="none" 
	d="
M34.048920,177.333344 
	C34.866364,177.502533 35.814224,177.965439 36.859932,178.750626 
	C36.031631,178.590958 35.105480,178.109009 34.048920,177.333344 
z"/>
<path fill="#0B4AA4" opacity="1.000000" stroke="none" 
	d="
M110.000587,28.645836 
	C109.432037,28.508345 108.805603,28.050394 108.092819,27.297773 
	C108.651871,27.443861 109.297287,27.884619 110.000587,28.645836 
z"/>
<path fill="#1F4EAA" opacity="1.000000" stroke="none" 
	d="
M62.687630,37.983864 
	C62.506657,38.252705 62.025917,38.562332 61.257072,38.917595 
	C61.441933,38.650372 61.914898,38.337513 62.687630,37.983864 
z"/>
<path fill="#1F4EAA" opacity="1.000000" stroke="none" 
	d="
M60.684631,38.998882 
	C60.517303,39.268784 60.055828,39.578594 59.316284,39.940132 
	C59.488972,39.674168 59.939728,39.356480 60.684631,38.998882 
z"/>
<path fill="#AD69D8" opacity="1.000000" stroke="none" 
	d="
M71.645882,198.003250 
	C71.991730,198.182739 71.990845,198.362915 71.977036,198.812988 
	C71.361244,198.929535 70.758377,198.776154 70.033745,198.329773 
	C70.374374,198.025818 70.836761,198.014877 71.645882,198.003250 
z"/>
<path fill="#1F4EAA" opacity="1.000000" stroke="none" 
	d="
M58.676716,40.068092 
	C58.499939,40.327991 58.024712,40.611568 57.270485,40.940216 
	C57.453747,40.687450 57.916004,40.389610 58.676716,40.068092 
z"/>
<path fill="#A467D6" opacity="1.000000" stroke="none" 
	d="
M142.272430,185.812820 
	C142.194778,185.549683 142.392792,185.365677 142.809265,185.134735 
	C142.999390,185.417999 142.839508,185.686050 142.272430,185.812820 
z"/>
<path fill="#BA69E1" opacity="1.000000" stroke="none" 
	d="
M77.024750,202.299500 
	C77.223167,202.163391 77.459625,202.313675 77.815369,202.658798 
	C77.671028,202.721939 77.380402,202.632706 77.024750,202.299500 
z"/>
<path fill="#9A65D6" opacity="1.000000" stroke="none" 
	d="
M161.283020,174.802673 
	C161.218597,174.549316 161.427353,174.367386 161.851501,174.126099 
	C162.014069,174.395325 161.843842,174.664444 161.283020,174.802673 
z"/>
<path fill="#AD69D8" opacity="1.000000" stroke="none" 
	d="
M56.062004,190.245361 
	C56.264938,190.093414 56.502060,190.235184 56.845497,190.587006 
	C56.984127,190.743042 56.493069,190.823730 56.493069,190.823730 
	C56.493069,190.823730 56.128510,190.485031 56.062004,190.245361 
z"/>
<path fill="#9A65D6" opacity="1.000000" stroke="none" 
	d="
M162.284302,173.966873 
	C162.199249,173.753998 162.410172,173.508987 162.869583,173.168457 
	C162.893677,173.321335 162.714417,173.608612 162.284302,173.966873 
z"/>
<path fill="#AD69D8" opacity="1.000000" stroke="none" 
	d="
M65.018311,195.286469 
	C65.222816,195.132416 65.468277,195.278519 65.832764,195.631287 
	C65.685081,195.702438 65.387573,195.618668 65.018311,195.286469 
z"/>
<path fill="#9563D6" opacity="1.000000" stroke="none" 
	d="
M23.021065,171.285645 
	C23.212391,171.152634 23.451532,171.300797 23.815702,171.638519 
	C23.674686,171.701340 23.384068,171.614243 23.021065,171.285645 
z"/>
<path fill="#AD69D8" opacity="1.000000" stroke="none" 
	d="
M68.027267,197.294128 
	C68.235115,197.142609 68.477875,197.291473 68.835587,197.649582 
	C68.686676,197.718109 68.390556,197.630005 68.027267,197.294128 
z"/>
<path fill="#B169DC" opacity="1.000000" stroke="none" 
	d="
M119.277702,198.960663 
	C119.191711,198.741974 119.404915,198.498993 119.872025,198.169281 
	C119.895767,198.325775 119.712753,198.610382 119.277702,198.960663 
z"/>
<path fill="#9563D6" opacity="1.000000" stroke="none" 
	d="
M22.035028,170.301651 
	C22.239384,170.217743 22.481291,170.421158 22.824650,170.861938 
	C22.677267,170.886749 22.392757,170.716644 22.035028,170.301651 
z"/>
<path fill="#AD69D8" opacity="1.000000" stroke="none" 
	d="
M67.016266,196.278137 
	C67.235970,196.176086 67.487358,196.377716 67.826385,196.838348 
	C67.669090,196.870956 67.380394,196.699112 67.016266,196.278137 
z"/>
<path fill="#B169DC" opacity="1.000000" stroke="none" 
	d="
M121.271439,197.827820 
	C121.205299,197.571487 121.421005,197.380737 121.861679,197.130096 
	C121.878571,197.310318 121.700775,197.584717 121.271439,197.827820 
z"/>
<path fill="#A467D6" opacity="1.000000" stroke="none" 
	d="
M140.259415,186.803802 
	C140.189682,186.544418 140.401459,186.354324 140.838898,186.108887 
	C140.858093,186.291168 140.683548,186.564346 140.259415,186.803802 
z"/>
<path fill="#3852B8" opacity="1.000000" stroke="none" 
	d="
M175.921509,69.747017 
	C175.706985,69.805840 175.607895,69.572441 175.716660,69.163567 
	C175.778778,69.042198 175.891159,69.508911 175.921509,69.747017 
z"/>
<path fill="#254FAE" opacity="1.000000" stroke="none" 
	d="
M144.868652,47.786594 
	C144.708664,47.875187 144.498672,47.728722 144.175568,47.413834 
	C144.371567,47.185776 144.623642,47.287819 144.868652,47.786594 
z"/>
<path fill="#254FAE" opacity="1.000000" stroke="none" 
	d="
M142.945862,46.766636 
	C142.780823,46.867058 142.543488,46.716831 142.179138,46.381340 
	C142.383270,46.133465 142.657089,46.240105 142.945862,46.766636 
z"/>
<path fill="#1F4EAA" opacity="1.000000" stroke="none" 
	d="
M54.753708,42.299850 
	C54.807869,42.499813 54.616085,42.673862 54.227440,42.912621 
	C54.101162,42.694252 54.260227,42.459789 54.753708,42.299850 
z"/>
<path fill="#1F4EAA" opacity="1.000000" stroke="none" 
	d="
M56.750587,41.075600 
	C56.821880,41.269779 56.611401,41.511589 56.155136,41.847221 
	C56.139950,41.706841 56.326443,41.434235 56.750587,41.075600 
z"/>
<path fill="#0B4AA4" opacity="1.000000" stroke="none" 
	d="
M66.713066,35.269684 
	C66.770126,35.476894 66.579903,35.650082 66.187393,35.877441 
	C66.063683,35.655361 66.223900,35.423378 66.713066,35.269684 
z"/>
<path fill="#0B4AA4" opacity="1.000000" stroke="none" 
	d="
M73.732208,31.247421 
	C73.792427,31.465982 73.597473,31.642250 73.196426,31.873692 
	C73.053406,31.633722 73.215637,31.392477 73.732208,31.247421 
z"/>
<path fill="#0B4AA4" opacity="1.000000" stroke="none" 
	d="
M75.719650,30.117701 
	C75.793663,30.334059 75.582253,30.554462 75.135361,30.856939 
	C75.116226,30.703276 75.294350,30.430853 75.719650,30.117701 
z"/>
<path fill="#000000" opacity="1.000000" stroke="none" 
	d="
M162.974838,137.966110 
	C162.319580,139.717896 161.664322,141.469666 161.001968,143.607300 
	C160.994888,143.993134 160.967026,143.973801 160.673523,144.132965 
	C159.911499,145.513016 159.442993,146.733902 158.979584,147.967896 
	C158.984680,147.981003 158.956940,147.977386 158.727234,148.055023 
	C158.157669,148.334595 158.067978,148.616272 158.142426,149.214142 
	C158.031738,149.616562 158.007095,149.782516 157.982437,149.948471 
	C155.339386,153.724152 152.696320,157.499847 150.009827,161.627991 
	C149.684311,162.157715 149.402237,162.334946 148.737579,162.875519 
	C146.873825,165.144302 145.392654,167.049759 143.911469,168.955215 
	C139.010010,172.077667 134.108536,175.200104 129.074738,178.646118 
	C128.475357,179.008942 128.008270,179.048187 127.021645,179.177811 
	C126.244034,179.406555 126.126541,179.621719 126.149620,179.913681 
	C125.950920,179.960236 125.752220,180.006805 125.019211,180.110153 
	C124.165085,180.343384 123.997421,180.614090 123.981918,180.979050 
	C123.813766,181.017075 123.645615,181.055099 122.983734,181.122391 
	C122.317924,181.426346 122.145851,181.701050 121.973785,181.975754 
	C121.802689,182.006607 121.631592,182.037476 120.969383,182.112549 
	C120.164795,182.332581 119.987671,182.599060 119.946899,182.956192 
	C119.781456,182.983963 119.616020,183.011734 118.913101,183.065063 
	C117.902924,183.382614 117.430222,183.674622 116.957527,183.966629 
	C116.790146,183.994919 116.622757,184.023209 115.837082,184.062225 
	C113.135017,184.677155 111.051247,185.281387 108.526619,185.938232 
	C102.393517,186.401871 96.701263,186.812927 91.009018,187.223969 
	C90.261383,187.162720 89.513741,187.101471 88.187050,186.654633 
	C85.410362,186.175674 83.212723,186.082291 81.015091,185.988922 
	C81.015091,185.988922 81.000656,185.999237 81.005104,185.991821 
	C75.400063,184.203705 69.790581,182.423004 63.942413,180.020355 
	C62.801971,179.010193 61.900208,178.621933 60.754700,178.152069 
	C60.342190,178.040756 60.173428,178.011032 59.936016,177.749695 
	C59.675121,177.169846 59.397552,177.077240 58.797729,177.146729 
	C58.393181,177.025818 58.225574,176.998474 57.929749,176.673340 
	C56.876240,175.906815 55.950951,175.438049 55.025658,174.969269 
	C55.025654,174.969284 55.000099,175.000000 54.940956,174.742691 
	C54.595821,174.326035 54.309830,174.166687 54.023838,174.007339 
	C54.023838,174.007339 54.014671,173.990005 54.004597,173.984772 
	C51.038708,171.524963 48.082890,169.070374 44.995636,166.053528 
	C44.583393,165.321838 44.302593,165.152390 44.021790,164.982941 
	C43.838150,164.704880 43.654510,164.426834 43.171303,163.819458 
	C42.684097,163.180847 42.409473,163.020325 42.047867,163.008591 
	C42.047867,163.008591 42.048958,162.950943 41.957314,162.715408 
	C41.676861,162.173889 41.402672,162.019897 41.043106,162.017868 
	C41.043106,162.017868 41.044300,161.955658 40.953693,161.718140 
	C40.673470,161.173248 40.398064,161.017807 40.036869,161.014313 
	C40.036869,161.014313 40.038872,160.961151 39.950928,160.722321 
	C39.671532,160.174469 39.394054,160.016693 39.030552,160.010147 
	C39.030552,160.010147 39.029739,159.972305 38.975681,159.656265 
	C38.284573,158.569733 37.647522,157.799225 37.010471,157.028732 
	C37.010471,157.028732 37.020931,156.980698 36.947075,156.730804 
	C36.589409,156.312973 36.305599,156.145020 36.021790,155.977051 
	C36.021793,155.977051 36.000000,156.000000 35.971260,155.667816 
	C35.303082,154.553070 34.663643,153.770508 34.024200,152.987946 
	C34.024204,152.987946 34.003979,152.995911 33.977707,152.657288 
	C33.559780,151.548706 33.168125,150.778763 32.776474,150.008804 
	C30.835793,145.249817 28.895111,140.490814 26.767097,134.978607 
	C25.632084,128.817657 24.684401,123.409920 23.736717,118.002182 
	C24.467833,111.947472 25.198946,105.892754 25.948030,99.175865 
	C25.987688,98.346191 26.009375,98.178696 26.031061,98.011200 
	C28.000557,92.926544 29.970055,87.841888 32.029213,82.086868 
	C32.425587,80.634918 32.732296,79.853340 33.039009,79.071762 
	C36.518345,75.244820 39.997677,71.417885 43.555885,67.275681 
	C46.326073,64.501968 49.017384,62.043507 51.866768,59.284462 
	C52.202538,58.952641 52.380241,58.921398 53.013859,58.795242 
	C53.733963,58.555191 53.865284,58.331909 53.863739,58.030483 
	C53.863739,58.030483 54.019897,58.018215 54.249199,57.885738 
	C54.746033,57.577789 54.917950,57.334671 54.994247,57.023907 
	C55.167980,56.996902 55.341709,56.969902 56.013962,56.882240 
	C56.828011,56.652596 56.997810,56.389553 57.021889,56.032452 
	C57.021889,56.032452 57.003300,56.005779 57.243797,55.918610 
	C57.772644,55.632751 57.939415,55.359787 57.984604,55.012539 
	C58.163906,54.963825 58.343212,54.915108 58.997910,54.783386 
	C59.750740,54.544071 59.883316,54.306805 59.871029,53.988594 
	C59.871029,53.988594 59.972073,53.985943 60.303642,53.825214 
	C67.421463,51.111938 74.207710,48.559395 80.993958,46.006851 
	C80.993958,46.006847 81.003288,46.004562 81.438919,45.984428 
	C90.909508,45.995934 99.944481,46.027576 108.979446,46.059216 
	C109.024361,46.405903 109.205551,46.652401 109.758942,46.768322 
	C114.752609,48.125969 119.510368,49.514008 124.790710,51.204849 
	C125.871201,51.668491 126.429092,51.829330 126.986984,51.990173 
	C126.986984,51.990173 126.991653,52.010696 127.191086,52.292915 
	C132.248734,55.702568 137.106934,58.830006 141.965149,61.957447 
	C142.166443,62.247387 142.367737,62.537323 142.880478,63.153389 
	C143.368011,63.760853 143.621780,63.910622 143.953217,63.928822 
	C145.093216,65.199600 146.233215,66.470375 147.666656,67.864883 
	C147.960114,67.988625 147.965118,68.037323 148.062531,68.273361 
	C148.352203,68.800926 148.621536,68.968918 148.967941,69.013397 
	C149.003906,69.187531 149.039856,69.361664 149.137543,70.020538 
	C149.359604,70.810791 149.612198,70.958397 149.957062,70.948090 
	C149.957062,70.948090 149.967117,71.062523 150.089264,71.266800 
	C150.379120,71.737045 150.619247,71.887390 150.931793,71.922112 
	C153.067627,75.178658 155.203476,78.435211 157.723953,82.109863 
	C158.165359,82.714241 158.222122,82.900513 158.259003,83.305634 
	C158.395981,83.803619 158.633881,83.957352 159.002594,84.333054 
	C159.764923,86.117752 160.477509,87.555099 161.149017,89.373520 
	C162.399277,93.529808 163.690643,97.305031 165.017883,101.313187 
	C165.053787,101.546120 165.176529,102.001221 165.102570,102.383438 
	C165.340591,104.180031 165.652603,105.594406 166.003082,107.381302 
	C166.092056,108.500099 166.142578,109.246376 166.111221,110.445793 
	C166.087494,114.269081 166.145630,117.639229 166.143723,121.378189 
	C166.113861,122.492104 166.144043,123.237198 166.107178,124.234802 
	C166.071747,124.658600 166.103333,124.829880 166.077454,125.318878 
	C166.003250,126.066696 165.986526,126.496788 165.640503,127.134552 
	C164.532425,130.883514 163.753632,134.424820 162.974838,137.966110 
M41.960255,120.041054 
	C41.960255,120.041054 42.041412,120.043045 42.139774,120.515038 
	C42.321644,120.819229 42.589798,120.973381 42.947189,121.052948 
	C42.947189,121.052948 43.022701,121.053185 43.134804,121.496643 
	C43.134804,121.496643 43.472275,121.805183 43.472275,121.805183 
	C43.472275,121.805183 43.925549,121.744225 44.497299,121.910423 
	C44.690266,121.956863 44.883228,122.003296 45.177525,122.454590 
	C45.177525,122.454590 45.480156,122.741364 45.480156,122.741364 
	C45.480156,122.741364 45.893650,122.687012 46.621441,122.896423 
	C50.401226,124.591431 54.181007,126.286438 57.967392,128.042862 
	C57.967392,128.042862 58.028976,128.045776 58.126194,128.499023 
	C58.126194,128.499023 58.464584,128.815369 58.464584,128.815369 
	C58.464584,128.815369 58.924030,128.755630 59.524624,128.946472 
	C59.722736,129.016312 59.920849,129.086166 60.177711,129.516144 
	C60.177711,129.516144 60.444546,129.764099 60.444546,129.764099 
	C60.444546,129.764099 60.804806,129.707352 61.531727,129.903000 
	C63.676445,130.944901 65.821167,131.986801 68.246765,133.648758 
	C70.475304,135.440979 72.703850,137.233200 75.198586,139.662308 
	C76.778435,141.776520 78.358284,143.890747 79.944946,146.064529 
	C79.944946,146.064529 80.003906,146.074997 80.043091,146.670929 
	C80.340431,147.126358 80.637764,147.581802 81.036766,148.776062 
	C82.099030,151.184769 83.161293,153.593491 84.144928,156.508575 
	C84.422821,156.681946 84.700714,156.855331 84.999695,157.000000 
	C84.999695,157.000000 84.976181,157.027679 85.052528,157.767059 
	C87.020493,161.521378 88.988457,165.275711 90.998367,169.000366 
	C90.998367,169.000366 90.965904,169.038345 91.107796,169.526535 
	C91.401093,169.614716 91.694382,169.702896 92.441910,169.957550 
	C92.441910,169.957550 92.920204,170.030228 93.266800,170.675735 
	C95.178581,170.131180 97.090355,169.586624 99.012779,169.013535 
	C99.012779,169.013535 99.041656,169.003876 99.526466,168.882690 
	C99.843201,168.691452 99.996368,168.410904 100.016808,168.019455 
	C100.016808,168.019455 100.036873,167.987610 100.662018,167.728302 
	C101.137398,166.489731 101.612778,165.251160 102.570374,163.882553 
	C102.930084,163.665466 103.002541,163.376373 103.055946,162.395401 
	C103.382545,161.596817 103.709145,160.798248 104.608719,159.764954 
	C104.666801,159.171570 104.724876,158.578186 104.956573,157.534546 
	C104.956573,157.534546 105.039864,157.059219 105.519485,156.899841 
	C105.611404,156.607986 105.703331,156.316116 105.961128,155.561172 
	C105.961128,155.561172 106.042511,155.076050 106.657852,154.784897 
	C107.119804,153.536926 107.581749,152.288940 108.495705,150.876846 
	C108.838341,150.680740 108.927826,150.403015 108.946465,149.546432 
	C108.973793,149.372040 109.001122,149.197632 109.648643,148.714981 
	C110.447174,146.834351 111.245705,144.953705 112.651100,142.803604 
	C113.777290,141.214951 114.903481,139.626297 116.652275,137.776947 
	C118.778481,136.107254 120.904678,134.437576 123.682007,132.710602 
	C125.118622,131.815765 126.555229,130.920944 128.533432,129.931580 
	C128.707031,129.872864 128.880646,129.814148 129.520126,129.802307 
	C129.819504,129.634232 129.978378,129.378738 130.527710,128.920654 
	C130.699020,128.861862 130.870316,128.803085 131.512024,128.801529 
	C131.817398,128.632614 131.976562,128.373795 132.503235,127.901550 
	C132.671799,127.850533 132.840347,127.799522 133.711395,127.668190 
	C136.490311,126.358047 139.269226,125.047905 142.518784,123.796066 
	C142.822403,123.624786 142.981354,123.364983 143.526962,122.920952 
	C143.698242,122.865746 143.869537,122.810532 144.518784,122.806274 
	C144.825531,122.633545 144.989609,122.371483 145.002441,122.002800 
	C145.002441,122.002800 145.019699,122.010956 145.738663,121.933472 
	C149.182617,120.353584 150.631516,117.770004 149.793793,113.521263 
	C149.628693,113.199669 149.365448,113.032700 148.873230,112.485382 
	C148.799240,112.317375 148.725266,112.149376 148.441727,111.369217 
	C146.627335,110.567223 144.812958,109.765221 142.653046,108.375267 
	C140.771378,107.589401 138.889725,106.803543 137.010757,105.985123 
	C137.010757,105.985123 136.978439,105.990013 136.841095,105.554932 
	C136.659882,105.230873 136.397385,105.139030 135.385742,105.101501 
	C134.928406,105.046112 134.471069,104.990715 133.669724,104.343697 
	C131.780029,103.552780 129.890335,102.761856 127.652977,101.378807 
	C125.764969,100.577919 123.876968,99.777031 121.825096,98.545937 
	C121.647308,98.256271 121.388580,98.116951 121.043297,97.960220 
	C121.043297,97.960220 120.875481,97.957115 120.787178,97.530586 
	C120.620789,97.246178 120.373962,97.123444 119.991455,96.969223 
	C119.991455,96.969223 119.791077,96.954697 119.710434,96.572090 
	C119.560295,96.320160 119.339096,96.207123 119.009438,96.035149 
	C119.009438,96.035149 118.809616,96.010597 118.525391,95.415840 
	C116.703926,93.929237 114.882469,92.442635 112.802963,90.338875 
	C111.807915,88.892509 110.812866,87.446136 109.913879,85.279083 
	C109.194389,83.532967 108.474899,81.786842 107.775299,79.323204 
	C106.179810,76.206322 104.584312,73.089439 102.906601,69.262123 
	C101.042717,65.574341 99.977028,60.228237 94.599922,61.326828 
	C92.056396,61.846497 90.182259,65.642525 87.397018,68.342934 
	C85.949333,71.879333 84.501640,75.415741 82.935066,78.984543 
	C82.935066,78.984543 82.953751,79.106339 82.470192,79.361748 
	C82.335045,79.883171 82.199898,80.404587 81.487373,81.332733 
	C80.956696,82.876160 80.426018,84.419586 79.327110,86.304932 
	C79.201088,87.172035 79.075073,88.039131 78.345093,89.189331 
	C76.241760,91.450279 74.138428,93.711227 71.440193,96.219269 
	C70.630081,96.845741 69.819969,97.472221 68.471878,98.225464 
	C63.634769,100.807732 58.797657,103.389999 53.998703,106.001610 
	C53.998703,106.001610 53.975403,105.959747 53.263683,106.012215 
	C51.827843,106.663795 50.392006,107.315384 48.255383,108.055382 
	C46.196674,109.364494 44.137966,110.673615 41.975609,111.986694 
	C41.975609,111.986694 41.969353,112.089508 41.553555,112.183891 
	C41.242722,112.349342 41.158966,112.592949 41.096485,113.506859 
	C41.048416,113.710213 41.000343,113.913567 40.368736,114.420174 
	C40.571163,115.603889 40.773590,116.787605 41.097878,118.514740 
	C41.149731,118.692986 41.201588,118.871239 41.182621,119.515282 
	C41.345692,119.831276 41.604755,119.979477 41.960255,120.041054 
z"/>
<path fill="#AD69D8" opacity="1.000000" stroke="none" 
	d="
M91.283890,187.439209 
	C96.701263,186.812927 102.393517,186.401871 108.534958,186.219910 
	C108.990479,186.636765 108.996796,186.824509 109.003105,187.012268 
	C103.188324,187.226318 97.373535,187.440384 91.283890,187.439209 
z"/>
<path fill="#AD69D8" opacity="1.000000" stroke="none" 
	d="
M81.068695,186.321899 
	C83.212723,186.082291 85.410362,186.175674 87.812332,186.622101 
	C85.655296,188.229950 83.165115,192.257278 81.068695,186.321899 
z"/>
<path fill="#A467D6" opacity="1.000000" stroke="none" 
	d="
M109.352928,186.861115 
	C108.996796,186.824509 108.990479,186.636765 108.975815,186.167313 
	C111.051247,185.281387 113.135017,184.677155 115.596748,184.146362 
	C115.725449,184.662613 115.476189,185.105408 115.112549,185.775299 
	C113.233032,186.238266 111.467888,186.474121 109.352928,186.861115 
z"/>
<path fill="#B169DC" opacity="1.000000" stroke="none" 
	d="
M114.287750,189.774719 
	C114.233162,190.045715 114.078682,190.208420 113.924210,190.371124 
	C113.838921,190.278137 113.753624,190.185150 113.668335,190.092178 
	C113.841515,189.950256 114.014694,189.808334 114.287750,189.774719 
z"/>
<path fill="#1F4EAA" opacity="1.000000" stroke="none" 
	d="
M80.560013,46.000721 
	C74.207710,48.559395 67.421463,51.111938 60.301678,53.774712 
	C59.742195,52.794003 59.516247,51.703068 59.388489,50.094864 
	C60.322880,48.719757 61.159081,47.861912 61.995285,47.004066 
	C61.995281,47.004066 61.999710,47.000237 62.001888,46.998077 
	C68.044731,46.662144 74.085396,46.328369 80.560013,46.000721 
z"/>
<path fill="#1F4EAA" opacity="1.000000" stroke="none" 
	d="
M108.843674,45.716545 
	C99.944481,46.027576 90.909508,45.995934 81.441910,45.980553 
	C81.215889,45.737587 81.387398,45.292618 81.634193,45.245964 
	C90.664284,43.538979 99.697029,42.627991 108.843674,45.716545 
z"/>
<path fill="#9163D1" opacity="1.000000" stroke="none" 
	d="
M144.186996,168.826874 
	C145.392654,167.049759 146.873825,165.144302 148.666504,163.122986 
	C148.501617,164.214600 148.025238,165.422073 147.272095,166.824005 
	C146.151077,167.578491 145.306793,168.138519 144.186996,168.826874 
z"/>
<path fill="#4255BE" opacity="1.000000" stroke="none" 
	d="
M161.190109,88.992439 
	C160.477509,87.555099 159.764923,86.117752 158.919739,84.163239 
	C158.651199,83.429214 158.481781,83.242790 158.278870,83.086777 
	C158.222122,82.900513 158.165359,82.714241 158.039062,82.243851 
	C158.614685,80.145248 159.259827,78.330757 159.551987,77.509026 
	C163.778961,77.509026 167.113007,77.593262 170.441193,77.489586 
	C175.641632,77.327606 176.926056,78.468597 176.995468,83.614532 
	C177.011124,84.774895 176.997971,85.935646 176.994736,87.549591 
	C172.521042,88.891991 168.050659,89.780998 163.159698,90.603867 
	C162.222778,90.022621 161.706451,89.507530 161.190109,88.992439 
z"/>
<path fill="#2E50B4" opacity="1.000000" stroke="none" 
	d="
M150.815918,71.753647 
	C150.619247,71.887390 150.379120,71.737045 150.146591,71.263245 
	C150.318268,71.196510 150.524353,71.373100 150.815918,71.753647 
z"/>
<path fill="#2E50B4" opacity="1.000000" stroke="none" 
	d="
M149.860992,70.779037 
	C149.612198,70.958397 149.359604,70.810791 149.214935,70.275772 
	C149.436325,70.208000 149.614441,70.395905 149.860992,70.779037 
z"/>
<path fill="#2E50B4" opacity="1.000000" stroke="none" 
	d="
M148.836731,68.825661 
	C148.621536,68.968918 148.352203,68.800926 148.086426,68.277252 
	C148.277313,68.203529 148.508194,68.401131 148.836731,68.825661 
z"/>
<path fill="#254FAE" opacity="1.000000" stroke="none" 
	d="
M141.977188,61.578506 
	C137.106934,58.830006 132.248734,55.702568 127.201477,52.291328 
	C128.641647,51.848774 130.316498,51.878151 131.891541,51.496078 
	C136.673401,50.336109 140.984802,50.664280 144.662140,54.902740 
	C143.991470,57.076450 142.990356,59.138008 141.977188,61.578506 
z"/>
<path fill="#254FAE" opacity="1.000000" stroke="none" 
	d="
M143.831299,63.755959 
	C143.621780,63.910622 143.368011,63.760853 143.127502,63.261139 
	C143.309784,63.185486 143.525208,63.365601 143.831299,63.755959 
z"/>
<path fill="#8962CF" opacity="1.000000" stroke="none" 
	d="
M32.432236,149.973648 
	C33.168125,150.778763 33.559780,151.548706 33.982807,152.647583 
	C32.054752,153.730988 30.095325,154.485474 27.805365,155.367233 
	C27.003580,154.519409 26.030005,153.489929 25.056429,152.460449 
	C24.977583,152.889877 24.898737,153.319290 24.819891,153.748718 
	C21.415155,153.748718 18.010420,153.748718 14.302385,153.874207 
	C12.375319,150.023026 12.167156,145.737610 15.942868,143.378738 
	C20.321232,140.643356 26.234102,142.833984 29.040613,146.970520 
	C29.820457,148.119919 31.059580,148.957718 32.432236,149.973648 
z"/>
<path fill="#8962CF" opacity="1.000000" stroke="none" 
	d="
M34.036316,153.324646 
	C34.663643,153.770508 35.303082,154.553070 35.982037,155.656158 
	C35.363842,155.204895 34.706139,154.433121 34.036316,153.324646 
z"/>
<path fill="#8962CF" opacity="1.000000" stroke="none" 
	d="
M37.025055,157.360458 
	C37.647522,157.799225 38.284573,158.569733 38.956757,159.656265 
	C38.341137,159.212265 37.690388,158.452225 37.025055,157.360458 
z"/>
<path fill="#8962CF" opacity="1.000000" stroke="none" 
	d="
M44.012779,165.234528 
	C44.302593,165.152390 44.583393,165.321838 44.829391,165.744659 
	C44.794582,165.998032 44.395138,165.998001 44.195244,165.993774 
	C43.998154,165.821732 44.000961,165.653915 44.012779,165.234528 
z"/>
<path fill="#8962CF" opacity="1.000000" stroke="none" 
	d="
M41.167343,162.205658 
	C41.402672,162.019897 41.676861,162.173889 41.928486,162.715973 
	C41.719261,162.814484 41.486023,162.628281 41.167343,162.205658 
z"/>
<path fill="#8962CF" opacity="1.000000" stroke="none" 
	d="
M40.160713,161.203156 
	C40.398064,161.017807 40.673470,161.173248 40.922596,161.718842 
	C40.710541,161.816910 40.478027,161.628555 40.160713,161.203156 
z"/>
<path fill="#8962CF" opacity="1.000000" stroke="none" 
	d="
M39.155991,160.200775 
	C39.394054,160.016693 39.671532,160.174469 39.924355,160.723465 
	C39.711815,160.820938 39.477051,160.630280 39.155991,160.200775 
z"/>
<path fill="#8962CF" opacity="1.000000" stroke="none" 
	d="
M36.146873,156.174286 
	C36.305599,156.145020 36.589409,156.312973 36.922508,156.731537 
	C36.699181,156.823669 36.465900,156.620132 36.146873,156.174286 
z"/>
<path fill="#8962CF" opacity="1.000000" stroke="none" 
	d="
M42.171219,163.199905 
	C42.409473,163.020325 42.684097,163.180847 42.931763,163.729614 
	C42.720142,163.823776 42.487736,163.631165 42.171219,163.199905 
z"/>
<path fill="#3E54BC" opacity="1.000000" stroke="none" 
	d="
M33.170586,78.800980 
	C32.732296,79.853340 32.425587,80.634918 31.970278,81.708359 
	C27.194384,82.752892 22.582336,83.647720 17.927860,84.147064 
	C16.907505,84.256523 15.736087,82.957924 14.634235,82.307770 
	C17.803726,79.800621 13.476686,77.998840 14.010619,75.381310 
	C18.301107,74.057877 22.557320,72.800224 26.904198,72.207512 
	C31.396786,71.594948 34.283810,74.723587 33.170586,78.800980 
z"/>
<path fill="#A467D6" opacity="1.000000" stroke="none" 
	d="
M117.232346,183.941833 
	C117.430222,183.674622 117.902924,183.382614 118.677689,183.153900 
	C118.488884,183.450455 117.998024,183.683746 117.232346,183.941833 
z"/>
<path fill="#A467D6" opacity="1.000000" stroke="none" 
	d="
M120.140305,182.872314 
	C119.987671,182.599060 120.164795,182.332581 120.722473,182.196503 
	C120.788773,182.458237 120.577789,182.642303 120.140305,182.872314 
z"/>
<path fill="#A467D6" opacity="1.000000" stroke="none" 
	d="
M126.300568,179.857880 
	C126.126541,179.621719 126.244034,179.406555 126.692039,179.299927 
	C126.787163,179.533051 126.643677,179.689865 126.300568,179.857880 
z"/>
<path fill="#A467D6" opacity="1.000000" stroke="none" 
	d="
M124.170540,180.891785 
	C123.997421,180.614090 124.165085,180.343384 124.729271,180.208374 
	C124.802498,180.472046 124.597679,180.656952 124.170540,180.891785 
z"/>
<path fill="#A467D6" opacity="1.000000" stroke="none" 
	d="
M122.164932,181.889603 
	C122.145851,181.701050 122.317924,181.426346 122.737885,181.202545 
	C122.807335,181.472778 122.597443,181.656128 122.164932,181.889603 
z"/>
<path fill="#254FAE" opacity="1.000000" stroke="none" 
	d="
M126.785522,51.794285 
	C126.429092,51.829330 125.871201,51.668491 125.172424,51.248474 
	C125.549049,51.192333 126.066551,51.395367 126.785522,51.794285 
z"/>
<path fill="#A667D8" opacity="1.000000" stroke="none" 
	d="
M58.057972,176.971115 
	C58.225574,176.998474 58.393181,177.025818 58.936794,177.298340 
	C59.515175,177.734070 59.745796,177.880005 60.004665,177.981323 
	C60.173428,178.011032 60.342190,178.040756 60.752411,178.494629 
	C60.999615,179.602875 61.005371,180.286957 61.011124,180.971039 
	C57.423222,182.694077 57.651020,179.703064 57.280117,177.379303 
	C57.702194,176.993835 57.880081,176.982483 58.057972,176.971115 
z"/>
<path fill="#9D66D4" opacity="1.000000" stroke="none" 
	d="
M61.281967,180.853882 
	C61.005371,180.286957 60.999615,179.602875 60.996155,178.576233 
	C61.900208,178.621933 62.801971,179.010193 63.745872,179.700821 
	C63.042946,180.247711 62.297874,180.492218 61.281967,180.853882 
z"/>
<path fill="#9D66D4" opacity="1.000000" stroke="none" 
	d="
M57.929749,176.673340 
	C57.880081,176.982483 57.702194,176.993835 57.257248,177.022263 
	C56.548191,177.028183 56.106194,177.017044 55.332481,177.002762 
	C55.002640,176.548309 55.004517,176.097000 55.016026,175.307480 
	C55.950951,175.438049 56.876240,175.906815 57.929749,176.673340 
z"/>
<path fill="#9D66D4" opacity="1.000000" stroke="none" 
	d="
M54.159462,174.199646 
	C54.309830,174.166687 54.595821,174.326035 54.955971,174.729340 
	C54.747662,174.826889 54.502647,174.633102 54.159462,174.199646 
z"/>
<path fill="#4F57C2" opacity="1.000000" stroke="none" 
	d="
M25.850445,97.729019 
	C26.009375,98.178696 25.987688,98.346191 25.894585,98.756744 
	C20.822695,103.024841 15.178448,101.924675 13.241664,96.275169 
	C14.239403,88.506371 15.295531,87.867416 21.789021,88.967285 
	C27.643585,89.958939 25.451777,94.143494 25.850445,97.729019 
z"/>
<path fill="#154DB0" opacity="1.000000" stroke="none" 
	d="
M61.639252,47.005295 
	C61.159081,47.861912 60.322880,48.719757 59.251602,49.785801 
	C58.714016,49.513371 58.411507,49.032734 58.050205,48.268986 
	C59.088680,47.659424 60.185947,47.332973 61.639252,47.005295 
z"/>
<path fill="#1F4EAA" opacity="1.000000" stroke="none" 
	d="
M54.809837,57.133797 
	C54.917950,57.334671 54.746033,57.577789 54.259029,57.808037 
	C54.196518,57.620167 54.391808,57.413792 54.809837,57.133797 
z"/>
<path fill="#1F4EAA" opacity="1.000000" stroke="none" 
	d="
M53.710911,58.116524 
	C53.865284,58.331909 53.733963,58.555191 53.267059,58.699654 
	C53.200138,58.504864 53.364716,58.339390 53.710911,58.116524 
z"/>
<path fill="#1F4EAA" opacity="1.000000" stroke="none" 
	d="
M56.835922,56.134365 
	C56.997810,56.389553 56.828011,56.652596 56.268852,56.814552 
	C56.206810,56.587959 56.415058,56.397541 56.835922,56.134365 
z"/>
<path fill="#1F4EAA" opacity="1.000000" stroke="none" 
	d="
M57.795906,55.150787 
	C57.939415,55.359787 57.772644,55.632751 57.257721,55.926208 
	C57.178276,55.741665 57.370300,55.497681 57.795906,55.150787 
z"/>
<path fill="#1F4EAA" opacity="1.000000" stroke="none" 
	d="
M59.714680,54.079208 
	C59.883316,54.306805 59.750740,54.544071 59.260345,54.689548 
	C59.189400,54.480656 59.359711,54.311024 59.714680,54.079208 
z"/>
<path fill="#8961D3" opacity="1.000000" stroke="none" 
	d="
M158.240540,150.207230 
	C158.007095,149.782516 158.031738,149.616562 158.295975,149.072052 
	C158.729141,148.486038 158.869583,148.247330 158.956940,147.977386 
	C158.956940,147.977386 158.984680,147.981003 159.307800,147.855194 
	C160.076279,146.477539 160.521652,145.225662 160.967026,143.973801 
	C160.967026,143.973801 160.994888,143.993134 160.983063,143.980316 
	C163.931519,143.573624 166.911850,143.291168 169.847961,142.762909 
	C176.118500,141.634750 177.325378,142.544708 177.297592,148.761749 
	C177.292404,149.921371 177.108170,151.080200 176.998672,152.621399 
	C170.768967,152.578629 164.240463,154.388931 158.240540,150.207230 
z"/>
<path fill="#5759C5" opacity="1.000000" stroke="none" 
	d="
M165.176529,102.001221 
	C165.176529,102.001221 165.053787,101.546120 165.037170,100.889404 
	C164.995270,98.821854 164.969986,97.411034 164.944702,96.000206 
	C168.478134,96.571457 172.011566,97.142715 177.002182,97.949554 
	C177.002182,100.152420 177.002182,103.617157 176.593048,107.511810 
	C173.143661,107.633598 170.103409,107.325478 166.911926,106.710205 
	C166.232635,104.935776 165.704575,103.468498 165.176529,102.001221 
z"/>
<path fill="#6459C3" opacity="1.000000" stroke="none" 
	d="
M167.063171,107.017357 
	C170.103409,107.325478 173.143661,107.633598 176.591949,107.969177 
	C177.005600,111.023705 177.011185,114.050758 177.017609,117.529892 
	C177.018433,117.981956 177.001312,117.998566 176.636993,117.933609 
	C173.215805,118.251740 170.158936,118.634819 167.077728,118.583313 
	C166.766617,115.430046 166.479843,112.711349 166.193085,109.992653 
	C166.142578,109.246376 166.092056,108.500099 166.277664,107.387894 
	C166.696915,107.020432 166.880051,107.018890 167.063171,107.017357 
z"/>
<path fill="#5A59A4" opacity="1.000000" stroke="none" 
	d="
M164.808777,95.694817 
	C164.969986,97.411034 164.995270,98.821854 165.001282,100.656464 
	C163.690643,97.305031 162.399277,93.529808 161.149017,89.373520 
	C161.706451,89.507530 162.222778,90.022621 162.882248,90.773994 
	C163.574524,92.469994 164.123688,93.929710 164.808777,95.694817 
z"/>
<path fill="#795ECE" opacity="1.000000" stroke="none" 
	d="
M13.506947,136.972015 
	C13.058505,133.624008 13.061757,130.288162 13.488536,126.488022 
	C23.508524,126.756882 23.658127,126.878265 24.997765,135.018417 
	C21.318056,135.673676 17.638348,136.328934 13.506947,136.972015 
z"/>
<path fill="#6D5CC6" opacity="1.000000" stroke="none" 
	d="
M25.292412,135.015869 
	C23.658127,126.878265 23.508524,126.756882 13.500998,126.033096 
	C13.505632,123.660484 13.921332,121.278481 14.370474,118.704849 
	C17.127554,118.457672 19.660719,118.230576 22.577496,117.991882 
	C22.961107,117.980286 23.348452,118.007599 23.542583,118.004890 
	C24.684401,123.409920 25.632084,128.817657 26.672354,134.602509 
	C26.372314,134.990860 25.979689,135.002090 25.292412,135.015869 
z"/>
<path fill="#775FCA" opacity="1.000000" stroke="none" 
	d="
M163.297897,138.113144 
	C163.753632,134.424820 164.532425,130.883514 165.832321,127.420654 
	C169.899323,128.001221 173.445236,128.503357 176.991135,129.005493 
	C176.999680,131.692093 177.008224,134.378693 177.020157,137.510162 
	C172.556000,138.056763 168.088486,138.158463 163.297897,138.113144 
z"/>
<path fill="#6E5DCA" opacity="1.000000" stroke="none" 
	d="
M176.994537,128.546967 
	C173.445236,128.503357 169.899323,128.001221 166.161621,127.212990 
	C165.986526,126.496788 166.003250,126.066696 166.180466,125.211388 
	C166.469360,124.480347 166.413773,124.212387 166.174210,123.982292 
	C166.144043,123.237198 166.113861,122.492104 166.319641,121.163727 
	C166.737747,120.059593 166.919907,119.538742 167.102081,119.017891 
	C170.158936,118.634819 173.215805,118.251740 176.629303,117.940651 
	C176.989960,121.371239 176.993942,124.729843 176.994537,128.546967 
z"/>
<path fill="#6E5DCA" opacity="1.000000" stroke="none" 
	d="
M142.048141,123.737762 
	C139.269226,125.047905 136.490311,126.358047 133.323700,127.341614 
	C132.224442,122.947914 129.125931,122.998123 126.037498,122.998871 
	C107.561600,123.003365 89.085472,122.953583 70.609993,123.041962 
	C67.166405,123.058434 63.730728,123.754601 60.281693,123.890228 
	C57.058964,124.016960 57.460888,125.900558 57.960789,127.981453 
	C54.181007,126.286438 50.401226,124.591431 46.143677,122.658920 
	C45.494438,122.257698 45.297867,122.133804 45.076195,122.049728 
	C44.883228,122.003296 44.690266,121.956863 44.082916,121.685089 
	C43.479973,121.281792 43.264694,121.146271 43.022701,121.053185 
	C43.022701,121.053185 42.947189,121.052948 42.825531,120.832596 
	C42.518417,120.381355 42.297596,120.191620 42.041412,120.043045 
	C42.041412,120.043045 41.960255,120.041054 41.870667,119.828918 
	C41.635303,119.399696 41.459423,119.210594 41.253441,119.049484 
	C41.201588,118.871239 41.149731,118.692986 41.070145,118.007698 
	C41.042412,117.500656 41.116455,117.030556 41.430702,116.966965 
	C43.495106,117.267220 45.245262,117.631073 47.462372,117.996048 
	C53.552456,118.317238 59.177929,118.945374 64.798317,118.902779 
	C86.381104,118.739220 107.961868,118.323524 129.544373,118.095818 
	C133.508865,118.053993 137.518631,118.186035 141.422501,118.788567 
	C142.755600,118.994316 143.828125,120.888321 145.019699,122.010956 
	C145.019699,122.010956 145.002441,122.002800 144.826813,122.108307 
	C144.421432,122.364693 144.217987,122.545197 144.040817,122.755310 
	C143.869537,122.810532 143.698242,122.865746 143.085403,123.063698 
	C142.418945,123.354034 142.220383,123.531143 142.048141,123.737762 
z"/>
<path fill="#795ECE" opacity="1.000000" stroke="none" 
	d="
M57.964088,128.012161 
	C57.460888,125.900558 57.058964,124.016960 60.281693,123.890228 
	C63.730728,123.754601 67.166405,123.058434 70.609993,123.041962 
	C89.085472,122.953583 107.561600,123.003365 126.037498,122.998871 
	C129.125931,122.998123 132.224442,122.947914 132.972473,127.381775 
	C132.840347,127.799522 132.671799,127.850533 132.068588,128.054749 
	C131.407822,128.355072 131.210373,128.533844 131.041626,128.744308 
	C130.870316,128.803085 130.699020,128.861862 130.084717,129.068878 
	C129.416229,129.364136 129.220398,129.543579 129.054245,129.755432 
	C128.880646,129.814148 128.707031,129.872864 127.942154,129.980087 
	C125.908371,130.028030 124.465866,130.027451 122.760742,129.826202 
	C107.982452,129.417114 93.467163,129.157898 78.950745,129.047012 
	C76.334122,129.027039 73.634033,129.337784 71.127281,130.044724 
	C69.891273,130.393295 69.008499,131.994385 67.965881,133.028702 
	C65.821167,131.986801 63.676445,130.944901 61.086189,129.677536 
	C60.499130,129.296341 60.325233,129.197662 60.118958,129.156006 
	C59.920849,129.086166 59.722736,129.016312 59.097336,128.706360 
	C58.483921,128.284073 58.270233,128.143921 58.028976,128.045776 
	C58.028976,128.045776 57.967392,128.042862 57.964088,128.012161 
z"/>
<path fill="#5B59C4" opacity="1.000000" stroke="none" 
	d="
M134.013733,104.935318 
	C134.471069,104.990715 134.928406,105.046112 135.853455,105.333939 
	C136.515915,105.745354 136.735016,105.886566 136.978439,105.990013 
	C136.978439,105.990013 137.010757,105.985123 137.108353,106.307541 
	C138.138611,107.756149 139.071259,108.882347 139.852661,110.348183 
	C138.687347,111.115211 137.683334,111.881752 136.657547,111.912048 
	C131.888184,112.052940 127.111290,112.072723 122.339867,111.984879 
	C106.433495,111.692017 90.529083,111.131638 74.622414,111.071960 
	C63.775986,111.031265 52.927063,111.655685 42.079254,111.982727 
	C44.137966,110.673615 46.196674,109.364494 48.992393,108.020142 
	C51.144737,107.309845 52.560070,106.634796 53.975403,105.959747 
	C53.975403,105.959747 53.998703,106.001610 54.375443,106.019287 
	C60.272518,106.357872 65.791382,106.922356 71.313446,106.955528 
	C90.364479,107.069977 109.417061,107.055817 128.467651,106.908676 
	C130.321320,106.894363 132.165268,105.623116 134.013733,104.935318 
z"/>
<path fill="#665CC8" opacity="1.000000" stroke="none" 
	d="
M145.379181,121.972214 
	C143.828125,120.888321 142.755600,118.994316 141.422501,118.788567 
	C137.518631,118.186035 133.508865,118.053993 129.544373,118.095818 
	C107.961868,118.323524 86.381104,118.739220 64.798317,118.902779 
	C59.177929,118.945374 53.552456,118.317238 47.372070,117.703278 
	C48.278595,116.316338 49.731754,114.305435 51.207966,114.288376 
	C57.761360,114.212601 64.320290,114.925240 70.879173,114.957794 
	C92.298782,115.064117 113.719528,115.056534 135.139145,114.951515 
	C139.758148,114.928871 144.374252,114.315765 149.175659,113.986954 
	C149.359619,113.999252 149.728348,114.003120 149.728348,114.003120 
	C150.631516,117.770004 149.182617,120.353584 145.379181,121.972214 
z"/>
<path fill="#4856C0" opacity="1.000000" stroke="none" 
	d="
M69.009857,98.098694 
	C69.819969,97.472221 70.630081,96.845741 72.054359,96.152695 
	C83.227791,96.376221 93.785843,96.801888 104.346855,96.895576 
	C109.164772,96.938316 113.988518,96.325882 118.809616,96.010597 
	C118.809616,96.010597 119.009438,96.035149 119.131973,96.273056 
	C119.410149,96.686943 119.589005,96.834854 119.791077,96.954697 
	C119.791077,96.954697 119.991455,96.969223 120.133400,97.220894 
	C120.447937,97.668076 120.647987,97.829590 120.875481,97.957115 
	C120.875481,97.957115 121.043297,97.960220 121.177338,98.210556 
	C121.508987,98.669769 121.734856,98.841522 121.988960,98.976143 
	C123.876968,99.777031 125.764969,100.577919 127.492294,101.903931 
	C122.952141,102.166275 118.564476,101.591286 114.194893,101.705856 
	C105.153641,101.942932 96.125923,102.668373 87.085121,102.959206 
	C80.574173,103.168655 74.051064,103.000000 67.399963,103.000000 
	C68.007133,101.151474 68.508492,99.625084 69.009857,98.098694 
z"/>
<path fill="#625AC6" opacity="1.000000" stroke="none" 
	d="
M148.991699,113.974648 
	C144.374252,114.315765 139.758148,114.928871 135.139145,114.951515 
	C113.719528,115.056534 92.298782,115.064117 70.879173,114.957794 
	C64.320290,114.925240 57.761360,114.212601 51.207966,114.288376 
	C49.731754,114.305435 48.278595,116.316338 46.905121,117.702164 
	C45.245262,117.631073 43.495106,117.267220 41.397354,116.602203 
	C41.017265,115.573006 40.984772,114.844963 40.952274,114.116928 
	C41.000343,113.913567 41.048416,113.710213 41.333691,113.093109 
	C41.737831,112.505791 41.870651,112.309174 41.969353,112.089508 
	C41.969353,112.089508 41.975609,111.986694 42.027431,111.984711 
	C52.927063,111.655685 63.775986,111.031265 74.622414,111.071960 
	C90.529083,111.131638 106.433495,111.692017 122.339867,111.984879 
	C127.111290,112.072723 131.888184,112.052940 136.657547,111.912048 
	C137.683334,111.881752 138.687347,111.115211 140.183502,110.347580 
	C141.106720,110.011673 141.547821,110.016014 142.244751,110.262321 
	C144.550827,110.996651 146.601044,111.489006 148.651276,111.981369 
	C148.725266,112.149376 148.799240,112.317375 148.934845,112.991302 
	C148.996460,113.497223 148.991699,113.974648 148.991699,113.974648 
z"/>
<path fill="#5257BF" opacity="1.000000" stroke="none" 
	d="
M68.740868,98.162079 
	C68.508492,99.625084 68.007133,101.151474 67.399963,103.000000 
	C74.051064,103.000000 80.574173,103.168655 87.085121,102.959206 
	C96.125923,102.668373 105.153641,101.942932 114.194893,101.705856 
	C118.564476,101.591286 122.952141,102.166275 127.666130,102.199997 
	C129.890335,102.761856 131.780029,103.552780 133.841736,104.639511 
	C132.165268,105.623116 130.321320,106.894363 128.467651,106.908676 
	C109.417061,107.055817 90.364479,107.069977 71.313446,106.955528 
	C65.791382,106.922356 60.272518,106.357872 54.356365,106.004608 
	C58.797657,103.389999 63.634769,100.807732 68.740868,98.162079 
z"/>
<path fill="#8360D0" opacity="1.000000" stroke="none" 
	d="
M68.106323,133.338730 
	C69.008499,131.994385 69.891273,130.393295 71.127281,130.044724 
	C73.634033,129.337784 76.334122,129.027039 78.950745,129.047012 
	C93.467163,129.157898 107.982452,129.417114 122.756577,130.168274 
	C123.020317,131.396622 123.025597,132.082245 123.030884,132.767883 
	C120.904678,134.437576 118.778481,136.107254 116.303116,137.549500 
	C115.270462,134.437546 113.642960,133.633408 110.561127,133.739471 
	C101.327286,134.057266 92.052971,134.268387 82.841766,133.722626 
	C78.241806,133.450104 75.618202,134.318436 74.932388,139.025421 
	C72.703850,137.233200 70.475304,135.440979 68.106323,133.338730 
z"/>
<path fill="#8C62D2" opacity="1.000000" stroke="none" 
	d="
M75.065491,139.343872 
	C75.618202,134.318436 78.241806,133.450104 82.841766,133.722626 
	C92.052971,134.268387 101.327286,134.057266 110.561127,133.739471 
	C113.642960,133.633408 115.270462,134.437546 115.991814,137.679840 
	C114.903481,139.626297 113.777290,141.214951 112.143616,142.620636 
	C109.602058,141.626083 107.596619,140.213104 105.528603,140.114685 
	C99.095833,139.808517 92.625809,140.255920 86.196579,139.914627 
	C81.510010,139.665848 79.297501,141.165085 79.938133,146.004959 
	C78.358284,143.890747 76.778435,141.776520 75.065491,139.343872 
z"/>
<path fill="#3E54BC" opacity="1.000000" stroke="none" 
	d="
M118.667503,95.713219 
	C113.988518,96.325882 109.164772,96.938316 104.346855,96.895576 
	C93.785843,96.801888 83.227791,96.376221 72.351807,96.029144 
	C74.138428,93.711227 76.241760,91.450279 78.881783,89.366959 
	C81.260864,90.029518 83.097824,90.907661 84.946556,90.933182 
	C94.316360,91.062523 103.689217,90.970482 113.061005,90.956032 
	C114.882469,92.442635 116.703926,93.929237 118.667503,95.713219 
z"/>
<path fill="#9864D6" opacity="1.000000" stroke="none" 
	d="
M79.941544,146.034744 
	C79.297501,141.165085 81.510010,139.665848 86.196579,139.914627 
	C92.625809,140.255920 99.095833,139.808517 105.528603,140.114685 
	C107.596619,140.213104 109.602058,141.626083 111.840179,142.755371 
	C111.245705,144.953705 110.447174,146.834351 109.284164,148.496094 
	C106.212288,147.388107 103.556236,146.043976 100.783798,145.731110 
	C97.684448,145.381332 94.325554,146.641342 91.361824,145.964691 
	C88.082588,145.216019 86.721039,146.063660 85.684387,149.103317 
	C85.243172,151.486664 85.117714,153.749741 84.800079,156.009933 
	C84.607918,156.007034 84.223564,156.002197 84.223557,156.002197 
	C83.161293,153.593491 82.099030,151.184769 80.947174,148.128967 
	C80.573029,147.012909 80.288467,146.543945 80.003906,146.074997 
	C80.003906,146.074997 79.944946,146.064529 79.941544,146.034744 
z"/>
<path fill="#1E4EAE" opacity="1.000000" stroke="none" 
	d="
M102.988815,69.972557 
	C104.584312,73.089439 106.179810,76.206322 107.514015,79.865585 
	C105.630379,81.845108 104.180771,83.628845 102.138824,80.656609 
	C101.541321,79.786880 99.793739,79.396500 98.547272,79.337677 
	C93.388260,79.094170 88.219269,79.061958 83.053947,78.952141 
	C84.501640,75.415741 85.949333,71.879333 87.981598,68.333755 
	C90.253151,70.034523 91.940117,71.744469 93.333336,73.156670 
	C96.775078,72.021675 99.881943,70.997116 102.988815,69.972557 
z"/>
<path fill="#2A51B6" opacity="1.000000" stroke="none" 
	d="
M82.994507,78.968338 
	C88.219269,79.061958 93.388260,79.094170 98.547272,79.337677 
	C99.793739,79.396500 101.541321,79.786880 102.138824,80.656609 
	C104.180771,83.628845 105.630379,81.845108 107.504074,80.224350 
	C108.474899,81.786842 109.194389,83.532967 109.439056,85.640335 
	C99.274605,85.988731 89.584976,85.975868 79.895340,85.963005 
	C80.426018,84.419586 80.956696,82.876160 81.957642,80.944382 
	C82.603195,80.072792 82.778473,79.589569 82.953751,79.106339 
	C82.953751,79.106339 82.935066,78.984543 82.994507,78.968338 
z"/>
<path fill="#3352BB" opacity="1.000000" stroke="none" 
	d="
M79.611221,86.133972 
	C89.584976,85.975868 99.274605,85.988731 109.391029,86.000687 
	C110.812866,87.446136 111.807915,88.892509 112.931984,90.647453 
	C103.689217,90.970482 94.316360,91.062523 84.946556,90.933182 
	C83.097824,90.907661 81.260864,90.029518 79.183762,89.225410 
	C79.075073,88.039131 79.201088,87.172035 79.611221,86.133972 
z"/>
<path fill="#AE67DE" opacity="1.000000" stroke="none" 
	d="
M84.992249,156.012833 
	C85.117714,153.749741 85.243172,151.486664 85.895943,149.349960 
	C87.277832,150.460770 88.132416,151.445190 88.302383,151.640991 
	C94.347931,151.969681 99.501740,152.249893 105.514366,152.576797 
	C105.527962,152.641159 105.785240,153.858612 106.042511,155.076050 
	C106.042511,155.076050 105.961128,155.561172 105.721329,155.941559 
	C105.282104,156.536438 105.134880,156.782196 105.039864,157.059219 
	C105.039864,157.059219 104.956573,157.534546 104.570076,157.757996 
	C103.783852,157.987701 103.384117,157.993958 102.694504,157.878555 
	C99.350304,158.173737 95.842461,157.415314 93.631851,160.997894 
	C92.499519,160.988449 91.744675,160.977783 90.870697,160.658600 
	C88.826424,159.242615 86.901299,158.135147 84.976181,157.027679 
	C84.976181,157.027679 84.999695,157.000000 84.997925,156.760452 
	C84.994850,156.351562 84.993553,156.182205 84.992249,156.012833 
z"/>
<path fill="#A467D6" opacity="1.000000" stroke="none" 
	d="
M106.350182,154.930481 
	C105.785240,153.858612 105.527962,152.641159 105.514366,152.576797 
	C99.501740,152.249893 94.347931,151.969681 88.302383,151.640991 
	C88.132416,151.445190 87.277832,150.460770 86.211700,149.229706 
	C86.721039,146.063660 88.082588,145.216019 91.361824,145.964691 
	C94.325554,146.641342 97.684448,145.381332 100.783798,145.731110 
	C103.556236,146.043976 106.212288,147.388107 108.974075,148.650223 
	C109.001122,149.197632 108.973793,149.372040 108.706314,149.939270 
	C108.280022,150.541382 108.139198,150.777664 108.043701,151.040970 
	C107.581749,152.288940 107.119804,153.536926 106.350182,154.930481 
z"/>
<path fill="#114BA7" opacity="1.000000" stroke="none" 
	d="
M102.947708,69.617340 
	C99.881943,70.997116 96.775078,72.021675 93.333336,73.156670 
	C91.940117,71.744469 90.253151,70.034523 88.285507,68.139343 
	C90.182259,65.642525 92.056396,61.846497 94.599922,61.326828 
	C99.977028,60.228237 101.042717,65.574341 102.947708,69.617340 
z"/>
<path fill="#C26CE0" opacity="1.000000" stroke="none" 
	d="
M90.989838,160.967102 
	C91.744675,160.977783 92.499519,160.988449 93.582291,161.301300 
	C93.783813,162.375366 93.657410,163.147247 93.417587,164.611725 
	C98.067406,161.869553 100.407097,162.821793 100.036873,167.987610 
	C100.036873,167.987610 100.016808,168.019455 99.808197,168.152313 
	C99.358681,168.482086 99.172707,168.721664 99.041656,169.003876 
	C99.041656,169.003876 99.012779,169.013535 98.619308,169.014923 
	C96.457298,169.354279 94.688751,169.692261 92.920204,170.030228 
	C92.920204,170.030228 92.441910,169.957550 92.068909,169.717178 
	C91.485199,169.276321 91.241867,169.130173 90.965904,169.038345 
	C90.965904,169.038345 90.998367,169.000366 91.004684,168.679535 
	C90.690834,166.720474 90.223656,165.092041 90.113777,163.439835 
	C90.060493,162.638565 90.676720,161.792755 90.989838,160.967102 
z"/>
<path fill="#B66DD7" opacity="1.000000" stroke="none" 
	d="
M100.349442,167.857956 
	C100.407097,162.821793 98.067406,161.869553 93.417587,164.611725 
	C93.657410,163.147247 93.783813,162.375366 93.959778,161.300079 
	C95.842461,157.415314 99.350304,158.173737 102.754135,158.162521 
	C103.414360,159.045303 103.725052,159.522491 104.035744,159.999664 
	C103.709145,160.798248 103.382545,161.596817 102.750107,162.730865 
	C102.325569,163.381744 102.206871,163.697159 102.088165,164.012589 
	C101.612778,165.251160 101.137398,166.489731 100.349442,167.857956 
z"/>
<path fill="#B66DD7" opacity="1.000000" stroke="none" 
	d="
M90.870697,160.658600 
	C90.676720,161.792755 90.060493,162.638565 90.113777,163.439835 
	C90.223656,165.092041 90.690834,166.720474 90.983719,168.694366 
	C88.988457,165.275711 87.020493,161.521378 85.014359,157.397369 
	C86.901299,158.135147 88.826424,159.242615 90.870697,160.658600 
z"/>
<path fill="#5B59C4" opacity="1.000000" stroke="none" 
	d="
M148.546509,111.675293 
	C146.601044,111.489006 144.550827,110.996651 142.391815,110.066269 
	C142.498245,109.381523 142.736755,109.159843 142.998566,108.963226 
	C144.812958,109.765221 146.627335,110.567223 148.546509,111.675293 
z"/>
<path fill="#5257BF" opacity="1.000000" stroke="none" 
	d="
M142.825806,108.669250 
	C142.736755,109.159843 142.498245,109.381523 142.135971,109.824310 
	C141.547821,110.016014 141.106720,110.011673 140.334763,110.007935 
	C139.071259,108.882347 138.138611,107.756149 137.106995,106.323822 
	C138.889725,106.803543 140.771378,107.589401 142.825806,108.669250 
z"/>
<path fill="#5A59A4" opacity="1.000000" stroke="none" 
	d="
M167.077728,118.583313 
	C166.919907,119.538742 166.737747,120.059593 166.379669,120.794907 
	C166.145630,117.639229 166.087494,114.269081 166.111221,110.445793 
	C166.479843,112.711349 166.766617,115.430046 167.077728,118.583313 
z"/>
<path fill="#5257BF" opacity="1.000000" stroke="none" 
	d="
M53.619541,105.985977 
	C52.560070,106.634796 51.144737,107.309845 49.342785,107.975929 
	C50.392006,107.315384 51.827843,106.663795 53.619541,105.985977 
z"/>
<path fill="#B66DD7" opacity="1.000000" stroke="none" 
	d="
M93.093506,170.352982 
	C94.688751,169.692261 96.457298,169.354279 98.613991,169.029190 
	C97.090355,169.586624 95.178581,170.131180 93.093506,170.352982 
z"/>
<path fill="#6E5DCA" opacity="1.000000" stroke="none" 
	d="
M123.356445,132.739243 
	C123.025597,132.082245 123.020317,131.396622 123.019196,130.368927 
	C124.465866,130.027451 125.908371,130.028030 127.671364,130.027344 
	C126.555229,130.920944 125.118622,131.815765 123.356445,132.739243 
z"/>
<path fill="#7F61C8" opacity="1.000000" stroke="none" 
	d="
M160.673523,144.132965 
	C160.521652,145.225662 160.076279,146.477539 159.302704,147.842087 
	C159.442993,146.733902 159.911499,145.513016 160.673523,144.132965 
z"/>
<path fill="#5A59A4" opacity="1.000000" stroke="none" 
	d="
M166.911926,106.710205 
	C166.880051,107.018890 166.696915,107.020432 166.239197,107.015373 
	C165.652603,105.594406 165.340591,104.180031 165.102570,102.383438 
	C165.704575,103.468498 166.232635,104.935776 166.911926,106.710205 
z"/>
<path fill="#A467D6" opacity="1.000000" stroke="none" 
	d="
M104.322235,159.882309 
	C103.725052,159.522491 103.414360,159.045303 103.044029,158.284164 
	C103.384117,157.993958 103.783852,157.987701 104.483261,157.983124 
	C104.724876,158.578186 104.666801,159.171570 104.322235,159.882309 
z"/>
<path fill="#5B59C4" opacity="1.000000" stroke="none" 
	d="
M40.660507,114.268555 
	C40.984772,114.844963 41.017265,115.573006 41.083107,116.665802 
	C41.116455,117.030556 41.042412,117.500656 41.009212,117.735992 
	C40.773590,116.787605 40.571163,115.603889 40.660507,114.268555 
z"/>
<path fill="#1E4EAE" opacity="1.000000" stroke="none" 
	d="
M82.711975,79.234039 
	C82.778473,79.589569 82.603195,80.072792 82.246338,80.741013 
	C82.199898,80.404587 82.335045,79.883171 82.711975,79.234039 
z"/>
<path fill="#8C62D2" opacity="1.000000" stroke="none" 
	d="
M80.023499,146.372955 
	C80.288467,146.543945 80.573029,147.012909 80.896347,147.759552 
	C80.637764,147.581802 80.340431,147.126358 80.023499,146.372955 
z"/>
<path fill="#A467D6" opacity="1.000000" stroke="none" 
	d="
M102.329269,163.947571 
	C102.206871,163.697159 102.325569,163.381744 102.616013,163.040771 
	C103.002541,163.376373 102.930084,163.665466 102.329269,163.947571 
z"/>
<path fill="#9D66D4" opacity="1.000000" stroke="none" 
	d="
M59.936016,177.749695 
	C59.745796,177.880005 59.515175,177.734070 59.173733,177.391891 
	C59.397552,177.077240 59.675121,177.169846 59.936016,177.749695 
z"/>
<path fill="#B66DD7" opacity="1.000000" stroke="none" 
	d="
M99.284058,168.943283 
	C99.172707,168.721664 99.358681,168.482086 99.792786,168.163101 
	C99.996368,168.410904 99.843201,168.691452 99.284058,168.943283 
z"/>
<path fill="#B66DD7" opacity="1.000000" stroke="none" 
	d="
M91.036850,169.282440 
	C91.241867,169.130173 91.485199,169.276321 91.841789,169.633942 
	C91.694382,169.702896 91.401093,169.614716 91.036850,169.282440 
z"/>
<path fill="#3E54BC" opacity="1.000000" stroke="none" 
	d="
M121.907028,98.761040 
	C121.734856,98.841522 121.508987,98.669769 121.180145,98.294434 
	C121.388580,98.116951 121.647308,98.256271 121.907028,98.761040 
z"/>
<path fill="#3E54BC" opacity="1.000000" stroke="none" 
	d="
M120.831329,97.743851 
	C120.647987,97.829590 120.447937,97.668076 120.161018,97.317474 
	C120.373962,97.123444 120.620789,97.246178 120.831329,97.743851 
z"/>
<path fill="#3E54BC" opacity="1.000000" stroke="none" 
	d="
M119.750755,96.763397 
	C119.589005,96.834854 119.410149,96.686943 119.150673,96.371964 
	C119.339096,96.207123 119.560295,96.320160 119.750755,96.763397 
z"/>
<path fill="#3852B8" opacity="1.000000" stroke="none" 
	d="
M158.259003,83.305634 
	C158.481781,83.242790 158.651199,83.429214 158.870010,83.815872 
	C158.633881,83.957352 158.395981,83.803619 158.259003,83.305634 
z"/>
<path fill="#5257BF" opacity="1.000000" stroke="none" 
	d="
M136.909760,105.772476 
	C136.735016,105.886566 136.515915,105.745354 136.187378,105.422890 
	C136.397385,105.139030 136.659882,105.230873 136.909760,105.772476 
z"/>
<path fill="#6E5DCA" opacity="1.000000" stroke="none" 
	d="
M131.276825,128.772919 
	C131.210373,128.533844 131.407822,128.355072 131.811737,128.116516 
	C131.976562,128.373795 131.817398,128.632614 131.276825,128.772919 
z"/>
<path fill="#A467D6" opacity="1.000000" stroke="none" 
	d="
M105.279678,156.979523 
	C105.134880,156.782196 105.282104,156.536438 105.638397,156.173096 
	C105.703331,156.316116 105.611404,156.607986 105.279678,156.979523 
z"/>
<path fill="#B66DD7" opacity="1.000000" stroke="none" 
	d="
M84.800087,156.009933 
	C84.993553,156.182205 84.994850,156.351562 84.987381,156.774811 
	C84.700714,156.855331 84.422821,156.681946 84.184250,156.255386 
	C84.223564,156.002197 84.607918,156.007034 84.800087,156.009933 
z"/>
<path fill="#9864D6" opacity="1.000000" stroke="none" 
	d="
M108.269699,150.958908 
	C108.139198,150.777664 108.280022,150.541382 108.615166,150.187881 
	C108.927826,150.403015 108.838341,150.680740 108.269699,150.958908 
z"/>
<path fill="#7F61C8" opacity="1.000000" stroke="none" 
	d="
M158.727234,148.055023 
	C158.869583,148.247330 158.729141,148.486038 158.382019,148.835571 
	C158.067978,148.616272 158.157669,148.334595 158.727234,148.055023 
z"/>
<path fill="#6E5DCA" opacity="1.000000" stroke="none" 
	d="
M129.287186,129.778870 
	C129.220398,129.543579 129.416229,129.364136 129.819244,129.126480 
	C129.978378,129.378738 129.819504,129.634232 129.287186,129.778870 
z"/>
<path fill="#6E5DCA" opacity="1.000000" stroke="none" 
	d="
M60.148335,129.336075 
	C60.325233,129.197662 60.499130,129.296341 60.722725,129.579712 
	C60.804806,129.707352 60.444546,129.764099 60.444546,129.764099 
	C60.444546,129.764099 60.177711,129.516144 60.148335,129.336075 
z"/>
<path fill="#6E5DCA" opacity="1.000000" stroke="none" 
	d="
M58.077583,128.272400 
	C58.270233,128.143921 58.483921,128.284073 58.797039,128.610947 
	C58.924030,128.755630 58.464584,128.815369 58.464584,128.815369 
	C58.464584,128.815369 58.126194,128.499023 58.077583,128.272400 
z"/>
<path fill="#5A59A4" opacity="1.000000" stroke="none" 
	d="
M166.107178,124.234802 
	C166.413773,124.212387 166.469360,124.480347 166.237946,124.893669 
	C166.103333,124.829880 166.071747,124.658600 166.107178,124.234802 
z"/>
<path fill="#665CC8" opacity="1.000000" stroke="none" 
	d="
M142.283463,123.766914 
	C142.220383,123.531143 142.418945,123.354034 142.819733,123.111549 
	C142.981354,123.364983 142.822403,123.624786 142.283463,123.766914 
z"/>
<path fill="#665CC8" opacity="1.000000" stroke="none" 
	d="
M144.279800,122.780792 
	C144.217987,122.545197 144.421432,122.364693 144.831100,122.116951 
	C144.989609,122.371483 144.825531,122.633545 144.279800,122.780792 
z"/>
<path fill="#625AC6" opacity="1.000000" stroke="none" 
	d="
M45.126862,122.252159 
	C45.297867,122.133804 45.494438,122.257698 45.779778,122.554214 
	C45.893650,122.687012 45.480156,122.741364 45.480156,122.741364 
	C45.480156,122.741364 45.177525,122.454590 45.126862,122.252159 
z"/>
<path fill="#625AC6" opacity="1.000000" stroke="none" 
	d="
M43.078751,121.274918 
	C43.264694,121.146271 43.479973,121.281792 43.797043,121.601990 
	C43.925549,121.744225 43.472275,121.805183 43.472275,121.805183 
	C43.472275,121.805183 43.134804,121.496643 43.078751,121.274918 
z"/>
<path fill="#625AC6" opacity="1.000000" stroke="none" 
	d="
M42.090591,120.279037 
	C42.297596,120.191620 42.518417,120.381355 42.824051,120.794861 
	C42.589798,120.973381 42.321644,120.819229 42.090591,120.279037 
z"/>
<path fill="#625AC6" opacity="1.000000" stroke="none" 
	d="
M41.218033,119.282379 
	C41.459423,119.210594 41.635303,119.399696 41.870445,119.788330 
	C41.604755,119.979477 41.345692,119.831276 41.218033,119.282379 
z"/>
<path fill="#5B59C4" opacity="1.000000" stroke="none" 
	d="
M149.175659,113.986954 
	C148.991699,113.974648 148.996460,113.497223 149.000259,113.258781 
	C149.365448,113.032700 149.628693,113.199669 149.761078,113.762192 
	C149.728348,114.003120 149.359619,113.999252 149.175659,113.986954 
z"/>
<path fill="#5B59C4" opacity="1.000000" stroke="none" 
	d="
M41.761452,112.136703 
	C41.870651,112.309174 41.737831,112.505791 41.436592,112.797035 
	C41.158966,112.592949 41.242722,112.349342 41.761452,112.136703 
z"/>
</svg>